<svg width="216" height="123" viewBox="0 0 216 123" fill="none" xmlns="http://www.w3.org/2000/svg">
<path fill-rule="evenodd" clip-rule="evenodd" d="M46 91H137C137.515 91 138.017 90.9444 138.5 90.8389C138.983 90.9444 139.485 91 140 91H192C195.866 91 199 87.866 199 84C199 80.134 195.866 77 192 77H186C182.134 77 179 73.866 179 70C179 66.134 182.134 63 186 63H205C208.866 63 212 59.866 212 56C212 52.134 208.866 49 205 49H183C186.866 49 190 45.866 190 42C190 38.134 186.866 35 183 35H119C122.866 35 126 31.866 126 28C126 24.134 122.866 21 119 21H62C58.134 21 55 24.134 55 28C55 31.866 58.134 35 62 35H22C18.134 35 15 38.134 15 42C15 45.866 18.134 49 22 49H47C50.866 49 54 52.134 54 56C54 59.866 50.866 63 47 63H7C3.13401 63 0 66.134 0 70C0 73.866 3.13401 77 7 77H46C42.134 77 39 80.134 39 84C39 87.866 42.134 91 46 91ZM209 91C212.866 91 216 87.866 216 84C216 80.134 212.866 77 209 77C205.134 77 202 80.134 202 84C202 87.866 205.134 91 209 91Z" fill="#F3F7FF"/>
<path d="M155.5 2V8" stroke="#1F64BC" stroke-opacity="0.14" stroke-width="2.5" stroke-linecap="round" stroke-linejoin="round"/>
<path d="M155.5 16V22" stroke="#1F64BC" stroke-opacity="0.14" stroke-width="2.5" stroke-linecap="round" stroke-linejoin="round"/>
<path d="M145.5 12H151.5" stroke="#1F64BC" stroke-opacity="0.14" stroke-width="2.5" stroke-linecap="round" stroke-linejoin="round"/>
<path d="M159.5 12H165.5" stroke="#1F64BC" stroke-opacity="0.14" stroke-width="2.5" stroke-linecap="round" stroke-linejoin="round"/>
<path d="M72.5 105V109" stroke="#1F64BC" stroke-opacity="0.14" stroke-width="2.5" stroke-linecap="round" stroke-linejoin="round"/>
<path d="M72.5 117V121" stroke="#1F64BC" stroke-opacity="0.14" stroke-width="2.5" stroke-linecap="round" stroke-linejoin="round"/>
<path d="M64.5 113H68.5" stroke="#1F64BC" stroke-opacity="0.14" stroke-width="2.5" stroke-linecap="round" stroke-linejoin="round"/>
<path d="M76.5 113H80.5" stroke="#1F64BC" stroke-opacity="0.14" stroke-width="2.5" stroke-linecap="round" stroke-linejoin="round"/>
<path fill-rule="evenodd" clip-rule="evenodd" d="M143.711 88.1263C145.102 86.4232 146.352 84.6421 147.461 82.7987C149.901 78.7443 151.66 74.3884 152.734 69.8975C153.821 65.3555 154.209 60.6755 153.894 56.0296C153.62 51.9756 152.811 47.9475 151.465 44.0598C150.131 40.2028 148.268 36.484 145.875 33.015C144.45 30.9479 142.836 28.9696 141.034 27.1036C138.388 24.364 135.486 22.0219 132.402 20.0787C129.089 17.9908 125.566 16.3634 121.926 15.1984C117.368 13.7393 112.628 13.0054 107.886 13C104.197 12.9959 100.507 13.4328 96.9025 14.3125C92.8447 15.3028 88.8953 16.8543 85.1766 18.9692C81.9076 20.8284 78.817 23.123 75.988 25.8547C72.4328 29.2875 69.553 33.1572 67.3512 37.2985C65.1956 41.3531 63.6899 45.6682 62.8366 50.0887C61.9574 54.6429 61.7706 59.3091 62.2789 63.9178C62.9378 69.8911 64.7643 75.7677 67.7644 81.1785C69.684 84.6407 72.0842 87.9123 74.9663 90.8964C79.5416 95.6338 84.8833 99.1826 90.6045 101.535C97.5619 104.397 105.081 105.489 112.465 104.8C118.662 104.221 124.765 102.387 130.361 99.2902" fill="white"/>
<path d="M143.711 88.1263C145.102 86.4232 146.352 84.6421 147.461 82.7987C149.901 78.7443 151.66 74.3884 152.734 69.8975C153.821 65.3555 154.209 60.6755 153.894 56.0296C153.62 51.9756 152.811 47.9475 151.465 44.0598C150.131 40.2028 148.268 36.484 145.875 33.015C144.45 30.9479 142.836 28.9696 141.034 27.1036C138.388 24.364 135.486 22.0219 132.402 20.0787C129.089 17.9908 125.566 16.3634 121.926 15.1984C117.368 13.7393 112.628 13.0054 107.886 13C104.197 12.9959 100.507 13.4328 96.9025 14.3125C92.8447 15.3028 88.8953 16.8543 85.1766 18.9692C81.9076 20.8284 78.817 23.123 75.988 25.8547C72.4328 29.2875 69.553 33.1572 67.3512 37.2985C65.1956 41.3531 63.6899 45.6682 62.8366 50.0887C61.9574 54.6429 61.7706 59.3091 62.2789 63.9178C62.9378 69.8911 64.7643 75.7677 67.7644 81.1785C69.684 84.6407 72.0842 87.9123 74.9663 90.8964C79.5416 95.6338 84.8833 99.1826 90.6045 101.535C97.5619 104.397 105.081 105.489 112.465 104.8C118.662 104.221 124.765 102.387 130.361 99.2902" stroke="#1C274C" stroke-width="2.5" stroke-linecap="round" stroke-linejoin="round"/>
<path fill-rule="evenodd" clip-rule="evenodd" d="M133.701 97.3777C136.607 95.5076 139.191 93.1744 140.872 91.2908Z" fill="white"/>
<path d="M133.701 97.3777C136.607 95.5076 139.191 93.1744 140.872 91.2908" stroke="#1C274C" stroke-width="2.5" stroke-linecap="round"/>
<path d="M150 61.617C149.714 61.6221 149.427 61.6246 149.14 61.6246C123.886 61.6246 103.209 41.9362 101.476 17C81.3752 20.1706 66 37.6526 66 58.7434C66 82.0811 84.8255 101 108.048 101C130.309 101 148.53 83.6145 150 61.617Z" fill="#E8F0FE"/>
<path fill-rule="evenodd" clip-rule="evenodd" d="M93.8239 21.4131C91.8737 22.1447 89.9688 23.0338 88.1284 24.0806C85.2686 25.7072 82.5648 27.7149 80.0899 30.1049C79.0754 31.0846 78.1237 32.105 77.235 33.161M74.4851 36.8378C73.7785 37.9057 73.1281 39.0004 72.5342 40.1176C72.0956 40.9428 71.6877 41.7803 71.3106 42.6285" fill="white"/>
<path d="M94.263 22.5834C94.9093 22.341 95.2367 21.6204 94.9942 20.974C94.7517 20.3277 94.0312 20.0003 93.3848 20.2428L94.263 22.5834ZM88.1284 24.0806L88.7464 25.1671L88.1284 24.0806ZM80.0899 30.1049L79.2216 29.2057L80.0899 30.1049ZM76.2786 32.3562C75.8341 32.8844 75.902 33.6729 76.4302 34.1174C76.9584 34.5619 77.7469 34.4941 78.1914 33.9659L76.2786 32.3562ZM75.5275 37.5277C75.9085 36.9519 75.7507 36.1764 75.1749 35.7954C74.5992 35.4144 73.8237 35.5723 73.4427 36.148L75.5275 37.5277ZM72.5342 40.1176L73.638 40.7044L73.638 40.7044L72.5342 40.1176ZM70.1684 42.1206C69.8879 42.7515 70.1719 43.4902 70.8027 43.7707C71.4335 44.0511 72.1723 43.7671 72.4528 43.1363L70.1684 42.1206ZM93.3848 20.2428C91.3735 20.9973 89.4086 21.9143 87.5104 22.994L88.7464 25.1671C90.5289 24.1532 92.374 23.2921 94.263 22.5834L93.3848 20.2428ZM87.5104 22.994C84.5604 24.672 81.7724 26.7424 79.2216 29.2057L80.9582 31.0041C83.3573 28.6874 85.9768 26.7425 88.7464 25.1671L87.5104 22.994ZM79.2216 29.2057C78.176 30.2154 77.195 31.2673 76.2786 32.3562L78.1914 33.9659C79.0525 32.9427 79.9747 31.9538 80.9582 31.0041L79.2216 29.2057ZM73.4427 36.148C72.7138 37.2494 72.0431 38.3785 71.4305 39.5309L73.638 40.7044C74.2132 39.6222 74.8431 38.562 75.5275 37.5277L73.4427 36.148ZM71.4305 39.5309C70.978 40.382 70.5573 41.2459 70.1684 42.1206L72.4528 43.1363C72.818 42.3148 73.2131 41.5036 73.638 40.7044L71.4305 39.5309Z" fill="#1F64BC" fill-opacity="0.14"/>
<path d="M112.279 57.4992L123.217 46.5612C123.466 46.3131 123.662 46.0186 123.797 45.6944C123.931 45.3702 124 45.0228 124 44.6719C124 44.321 123.931 43.9736 123.797 43.6494C123.662 43.3252 123.466 43.0307 123.217 42.7826C122.969 42.5345 122.675 42.3377 122.351 42.2034C122.026 42.0691 121.679 42 121.328 42C120.977 42 120.63 42.0691 120.306 42.2034C119.981 42.3377 119.687 42.5345 119.439 42.7826L108.5 53.7205L97.5621 42.7826C97.061 42.2815 96.3814 42 95.6727 42C94.9641 42 94.2845 42.2815 93.7834 42.7826C93.2823 43.2837 93.0008 43.9633 93.0008 44.6719C93.0008 45.3805 93.2823 46.0601 93.7834 46.5612L104.721 57.4992L93.7826 68.4371C93.5345 68.6853 93.3377 68.9798 93.2034 69.304C93.0691 69.6281 93 69.9756 93 70.3265C93 70.6773 93.0691 71.0248 93.2034 71.349C93.3377 71.6731 93.5345 71.9677 93.7826 72.2158C94.0307 72.4639 94.3252 72.6607 94.6494 72.795C94.9736 72.9293 95.321 72.9984 95.6719 72.9984C96.0228 72.9984 96.3702 72.9293 96.6944 72.795C97.0186 72.6607 97.3131 72.4639 97.5612 72.2158L108.5 61.2795L119.438 72.2175C119.96 72.7394 120.644 73 121.327 73C122.01 73 122.695 72.7394 123.217 72.2175C123.718 71.7163 124 71.0367 124 70.3281C124 69.6196 123.718 68.94 123.217 68.4388L112.279 57.4992Z" fill="white" stroke="#1C274C" stroke-width="2.5" stroke-linecap="round" stroke-linejoin="round"/>
</svg>
