<svg width="167" height="102" viewBox="0 0 167 102" fill="none" xmlns="http://www.w3.org/2000/svg">
<path fill-rule="evenodd" clip-rule="evenodd" d="M160 15C163.866 15 167 18.134 167 22C167 25.866 163.866 29 160 29H120C123.866 29 127 32.134 127 36C127 39.866 123.866 43 120 43H142C145.866 43 149 46.134 149 50C149 53.866 145.866 57 142 57H131.826C126.952 57 123 60.134 123 64C123 66.5773 125 68.9107 129 71C132.866 71 136 74.134 136 78C136 81.866 132.866 85 129 85H46C42.134 85 39 81.866 39 78C39 74.134 42.134 71 46 71H7C3.13401 71 0 67.866 0 64C0 60.134 3.13401 57 7 57H47C50.866 57 54 53.866 54 50C54 46.134 50.866 43 47 43H22C18.134 43 15 39.866 15 36C15 32.134 18.134 29 22 29H62C58.134 29 55 25.866 55 22C55 18.134 58.134 15 62 15H160ZM160 43C163.866 43 167 46.134 167 50C167 53.866 163.866 57 160 57C156.134 57 153 53.866 153 50C153 46.134 156.134 43 160 43Z" fill="#E6E7EC"/>
<path fill-rule="evenodd" clip-rule="evenodd" d="M106.672 14.0007L115.974 81.8434L116.809 88.6497C117.079 90.8424 115.519 92.8382 113.327 93.1074L54.7665 100.298C52.5738 100.567 50.578 99.0076 50.3088 96.815L41.2931 23.3874C41.1584 22.2911 41.9381 21.2932 43.0344 21.1586C43.0413 21.1578 43.0483 21.1569 43.0552 21.1562L47.9136 20.6112M51.8421 20.1705L56.4291 19.656Z" fill="white"/>
<path d="M107.91 13.8309C107.816 13.1469 107.186 12.6685 106.502 12.7623C105.818 12.856 105.34 13.4865 105.433 14.1705L107.91 13.8309ZM115.974 81.8434L117.214 81.6911C117.214 81.6852 117.213 81.6794 117.212 81.6736L115.974 81.8434ZM116.809 88.6497L118.05 88.4974L116.809 88.6497ZM113.327 93.1074L113.479 94.3481L113.327 93.1074ZM54.7665 100.298L54.9188 101.538L54.7665 100.298ZM50.3088 96.815L51.5495 96.6626L50.3088 96.815ZM41.2931 23.3874L40.0524 23.5398L41.2931 23.3874ZM43.0552 21.1562L43.1945 22.3984L43.0552 21.1562ZM48.0529 21.8534C48.739 21.7764 49.2327 21.1579 49.1558 20.4718C49.0788 19.7858 48.4603 19.292 47.7742 19.369L48.0529 21.8534ZM51.7028 18.9283C51.0167 19.0053 50.5229 19.6238 50.5999 20.3098C50.6768 20.9959 51.2954 21.4897 51.9814 21.4127L51.7028 18.9283ZM56.5685 20.8982C57.2545 20.8212 57.7483 20.2027 57.6714 19.5166C57.5944 18.8306 56.9759 18.3368 56.2898 18.4137L56.5685 20.8982ZM105.433 14.1705L114.735 82.0132L117.212 81.6736L107.91 13.8309L105.433 14.1705ZM114.733 81.9957L115.569 88.8021L118.05 88.4974L117.214 81.6911L114.733 81.9957ZM115.569 88.8021C115.754 90.3095 114.682 91.6816 113.174 91.8667L113.479 94.3481C116.357 93.9947 118.403 91.3753 118.05 88.4974L115.569 88.8021ZM113.174 91.8667L54.6141 99.057L54.9188 101.538L113.479 94.3481L113.174 91.8667ZM54.6141 99.057C53.1067 99.2421 51.7346 98.1701 51.5495 96.6626L49.0681 96.9673C49.4215 99.8452 52.0409 101.892 54.9188 101.538L54.6141 99.057ZM51.5495 96.6626L42.5337 23.2351L40.0524 23.5398L49.0681 96.9673L51.5495 96.6626ZM42.5337 23.2351C42.4833 22.824 42.7756 22.4498 43.1867 22.3993L42.8821 19.9179C41.1005 20.1367 39.8336 21.7582 40.0524 23.5398L42.5337 23.2351ZM43.1867 22.3993C43.1893 22.399 43.1919 22.3987 43.1945 22.3984L42.9159 19.914C42.9046 19.9152 42.8933 19.9165 42.8821 19.9179L43.1867 22.3993ZM43.1945 22.3984L48.0529 21.8534L47.7742 19.369L42.9159 19.914L43.1945 22.3984ZM51.9814 21.4127L56.5685 20.8982L56.2898 18.4137L51.7028 18.9283L51.9814 21.4127Z" fill="#1C274C"/>
<path fill-rule="evenodd" clip-rule="evenodd" d="M104.14 18.2686L112.56 79.7523L113.317 85.9205C113.561 87.9077 112.167 89.714 110.204 89.9551L57.7615 96.3941C55.7979 96.6352 54.0083 95.2198 53.7644 93.2327L45.6143 26.8562C45.4797 25.7599 46.2594 24.762 47.3557 24.6274L53.8433 23.8308" fill="#E8F0FE"/>
<path d="M63.6719 1.25H109.229C109.958 1.25 110.657 1.5395 111.173 2.05485L124.616 15.4898C125.132 16.0056 125.422 16.7053 125.422 17.4349V80C125.422 81.5188 124.191 82.75 122.672 82.75H63.6719C62.1531 82.75 60.9219 81.5188 60.9219 80V4C60.9219 2.48122 62.1531 1.25 63.6719 1.25Z" fill="white" stroke="#1C274C" stroke-width="2.5"/>
<path d="M109.672 2.40234V13.9995C109.672 15.6564 111.015 16.9995 112.672 16.9995H120.605" stroke="#1C274C" stroke-width="2.5" stroke-linecap="round" stroke-linejoin="round"/>
<path d="M71 68H97M71 17H97H71ZM71 29H114H71ZM71 42H114H71ZM71 55H114H71Z" stroke="#1F64BC" stroke-opacity="0.14" stroke-width="2.5" stroke-linecap="round" stroke-linejoin="round"/>
</svg>
