<svg width="167" height="88" viewBox="0 0 167 88" fill="none" xmlns="http://www.w3.org/2000/svg">
<path fill-rule="evenodd" clip-rule="evenodd" d="M160 1C163.866 1 167 4.13401 167 8C167 11.866 163.866 15 160 15H120C123.866 15 127 18.134 127 22C127 25.866 123.866 29 120 29H142C145.866 29 149 32.134 149 36C149 39.866 145.866 43 142 43H131.826C126.952 43 123 46.134 123 50C123 52.5773 125 54.9107 129 57C132.866 57 136 60.134 136 64C136 67.866 132.866 71 129 71H46C42.134 71 39 67.866 39 64C39 60.134 42.134 57 46 57H7C3.13401 57 0 53.866 0 50C0 46.134 3.13401 43 7 43H47C50.866 43 54 39.866 54 36C54 32.134 50.866 29 47 29H22C18.134 29 15 25.866 15 22C15 18.134 18.134 15 22 15H62C58.134 15 55 11.866 55 8C55 4.13401 58.134 1 62 1H160ZM160 29C163.866 29 167 32.134 167 36C167 39.866 163.866 43 160 43C156.134 43 153 39.866 153 36C153 32.134 156.134 29 160 29Z" fill="#E6E7EC"/>
<path d="M73.5 69C92.0015 69 107 54.0015 107 35.5C107 16.9985 92.0015 2 73.5 2C54.9985 2 40 16.9985 40 35.5C40 54.0015 54.9985 69 73.5 69Z" fill="#F3F7FF" stroke="#1C274C" stroke-width="2.5"/>
<path fill-rule="evenodd" clip-rule="evenodd" d="M68.1321 61.4939C69.8908 61.8185 71.6801 61.9872 73.5 62C88.1355 62 100 50.1355 100 35.5C100 20.8645 88.1355 9 73.5 9C69.7404 9 66.1636 9.78293 62.9238 11.1946C57.2938 13.6479 52.6816 17.9999 49.896 23.4419C48.0445 27.0589 47 31.1575 47 35.5C47 39.44 47.8599 43.1792 49.4021 46.5401C50.5032 48.9396 51.9521 51.1463 53.6843 53.0956" fill="white"/>
<path d="M68.1321 61.4939C69.8908 61.8185 71.6801 61.9872 73.5 62C88.1355 62 100 50.1355 100 35.5C100 20.8645 88.1355 9 73.5 9C69.7404 9 66.1636 9.78293 62.9238 11.1946C57.2938 13.6479 52.6816 17.9999 49.896 23.4419C48.0445 27.0589 47 31.1575 47 35.5C47 39.44 47.8599 43.1792 49.4021 46.5401C50.5032 48.9396 51.9521 51.1463 53.6843 53.0956" stroke="#1C274C" stroke-width="2.5" stroke-linecap="round"/>
<path d="M56.7974 56.0742C58.9455 57.8202 61.3723 59.2365 64.0008 60.2461" stroke="#1C274C" stroke-width="2.5" stroke-linecap="round"/>
<path d="M101 62L107 68" stroke="#1C274C" stroke-width="2.5"/>
<path fill-rule="evenodd" clip-rule="evenodd" d="M106.03 67.0309C104.138 68.9236 104.138 71.9923 106.03 73.885L117.116 84.9703C119.008 86.863 122.077 86.863 123.97 84.9703C125.863 83.0776 125.863 80.0089 123.97 78.1162L112.885 67.0309C110.992 65.1381 107.923 65.1381 106.03 67.0309Z" fill="#E8F0FE" stroke="#1C274C" stroke-width="2.5"/>
<path d="M111 69L122 80" stroke="white" stroke-width="2.5" stroke-linecap="round"/>
<path fill-rule="evenodd" clip-rule="evenodd" d="M67 24.0005C67 35.5985 76.4021 45.0005 88 45.0005C90.2784 45.0005 92.472 44.6377 94.5262 43.9667C91.1732 52.2876 83.0225 58.1612 73.5 58.1612C60.9849 58.1612 50.8394 48.0157 50.8394 35.5005C50.8394 24.1601 59.1697 14.7653 70.045 13.1016C68.113 16.2798 67 20.0102 67 24.0005Z" fill="#E8F0FE"/>
<path d="M74 17C72.7266 17 71.4825 17.1253 70.2793 17.3642M66.6447 18.4761C59.8039 21.3508 55 28.1144 55 36" stroke="#1F64BC" stroke-opacity="0.14" stroke-width="2.5" stroke-linecap="round"/>
<path d="M127.176 35.7773H119M133.5 28H116.324H133.5ZM140.5 28H138.279H140.5Z" stroke="#1F64BC" stroke-opacity="0.14" stroke-width="2.5" stroke-linecap="round" stroke-linejoin="round"/>
<path d="M37.1758 57.7773H29M32.5 49H15.3242H32.5ZM9.5 49H5.27881H9.5Z" stroke="#1F64BC" stroke-opacity="0.14" stroke-width="2.5" stroke-linecap="round" stroke-linejoin="round"/>
</svg>
