<svg width="17" height="18" viewBox="0 0 17 18" fill="none" xmlns="http://www.w3.org/2000/svg">
<path fill-rule="evenodd" clip-rule="evenodd" d="M4.43525 0.500006C4.45877 0.50001 4.48261 0.500013 4.50679 0.500013L4.53603 0.500012C4.81391 0.499993 4.99272 0.49998 5.16753 0.516328C5.91971 0.586666 6.6332 0.8822 7.2148 1.36433C7.34997 1.47639 7.47641 1.60284 7.67289 1.79934L8.12864 2.2551C8.79734 2.9238 9.05444 3.17342 9.35139 3.33864C9.52377 3.43455 9.70663 3.51029 9.89634 3.56436C10.2231 3.65752 10.5814 3.6628 11.5271 3.6628L11.8629 3.6628C12.8694 3.66279 13.6807 3.66278 14.3227 3.74349C14.988 3.82713 15.5533 4.00562 16.0177 4.42332C16.0955 4.49327 16.1695 4.56729 16.2395 4.64508C16.6572 5.10949 16.8357 5.67479 16.9193 6.3401C17 6.98205 17 7.79345 17 8.79995V10.626C17 12.0791 17 13.2301 16.8789 14.1309C16.7543 15.0579 16.4917 15.8082 15.8999 16.3999C15.3082 16.9917 14.5579 17.2543 13.6309 17.3789C12.7301 17.5 11.5791 17.5 10.126 17.5H6.87401C5.42089 17.5 4.26993 17.5 3.36915 17.3789C2.44212 17.2543 1.69179 16.9917 1.10006 16.3999C0.439901 15.7398 0.189341 14.8822 0.0831111 13.8022C0.0510504 13.4763 0.28929 13.1861 0.615235 13.154C0.941179 13.122 1.2314 13.3602 1.26346 13.6861C1.35946 14.6621 1.56595 15.1885 1.93873 15.5613C2.27336 15.8959 2.73168 16.0965 3.52719 16.2034C4.33976 16.3127 5.41089 16.314 6.91861 16.314H10.0814C11.5891 16.314 12.6602 16.3127 13.4728 16.2034C14.2683 16.0965 14.7267 15.8959 15.0613 15.5613C15.3959 15.2267 15.5965 14.7683 15.7034 13.9728C15.8127 13.1602 15.814 12.0891 15.814 10.5814V8.84021C15.814 7.78396 15.8129 7.04737 15.7425 6.48805C15.6741 5.94354 15.5484 5.65026 15.3576 5.43821C15.3157 5.39155 15.2713 5.34713 15.2246 5.30516C15.0125 5.11444 14.7193 4.98872 14.1748 4.92027C13.6154 4.84995 12.8788 4.84885 11.8226 4.84885H11.5271C11.4977 4.84885 11.4687 4.84885 11.4399 4.84886C10.6113 4.84903 10.077 4.84914 9.57121 4.70498C9.29394 4.62594 9.0267 4.51525 8.77476 4.37507C8.3152 4.11939 7.93742 3.74146 7.35161 3.15541C7.33132 3.13511 7.31078 3.11456 7.28998 3.09376L6.8549 2.65868C6.63091 2.43469 6.54521 2.34984 6.45787 2.27744C6.05993 1.94756 5.57175 1.74535 5.05711 1.69722C4.94414 1.68666 4.82355 1.68606 4.50679 1.68606C3.782 1.68606 3.50178 1.68865 3.27938 1.73061C2.23986 1.92674 1.42674 2.73986 1.23061 3.77938C1.18865 4.00178 1.18606 4.282 1.18606 5.00679V9.00001C1.18606 9.32752 0.920553 9.59303 0.593036 9.59303C0.265518 9.59303 1.30739e-05 9.32752 1.30739e-05 9.00001V5.00679C1.30739e-05 4.98261 9.7277e-06 4.95877 6.42865e-06 4.93525C-8.2457e-05 4.30592 -0.000138966 3.90541 0.0651295 3.55948C0.351783 2.04019 1.54019 0.851783 3.05948 0.56513C3.40541 0.499861 3.80592 0.499918 4.43525 0.500006ZM5.54948 8.65121C5.74212 8.38633 6.113 8.32777 6.37788 8.52041L9.6395 10.8925C9.79294 11.0041 9.88373 11.1824 9.88373 11.3721C9.88373 11.5618 9.79294 11.7401 9.6395 11.8517L6.37788 14.2238C6.113 14.4164 5.74212 14.3579 5.54948 14.093C5.35684 13.8281 5.4154 13.4572 5.68028 13.2646L7.46705 11.9651H0.593036C0.265518 11.9651 1.30739e-05 11.6996 1.30739e-05 11.3721C1.30739e-05 11.0446 0.265518 10.7791 0.593036 10.7791H7.46705L5.68028 9.4796C5.4154 9.28697 5.35684 8.91608 5.54948 8.65121Z" fill="white"/>
</svg>
