<svg width="18" height="17" viewBox="0 0 18 17" fill="none" xmlns="http://www.w3.org/2000/svg">
<g id="Union">
<path d="M13.3452 9.91667C13.7923 9.91667 14.1547 9.55423 14.1547 9.10714C14.1547 8.66006 13.7923 8.29762 13.3452 8.29762C12.8981 8.29762 12.5357 8.66006 12.5357 9.10714C12.5357 9.55423 12.8981 9.91667 13.3452 9.91667Z" fill="#4E4E4E"/>
<path d="M13.3452 13.1548C13.7923 13.1548 14.1547 12.7923 14.1547 12.3452C14.1547 11.8982 13.7923 11.5357 13.3452 11.5357C12.8981 11.5357 12.5357 11.8982 12.5357 12.3452C12.5357 12.7923 12.8981 13.1548 13.3452 13.1548Z" fill="#4E4E4E"/>
<path d="M10.1071 9.10714C10.1071 9.55423 9.74468 9.91667 9.2976 9.91667C8.85051 9.91667 8.48807 9.55423 8.48807 9.10714C8.48807 8.66006 8.85051 8.29762 9.2976 8.29762C9.74468 8.29762 10.1071 8.66006 10.1071 9.10714Z" fill="#4E4E4E"/>
<path d="M10.1071 12.3452C10.1071 12.7923 9.74468 13.1548 9.2976 13.1548C8.85051 13.1548 8.48807 12.7923 8.48807 12.3452C8.48807 11.8982 8.85051 11.5357 9.2976 11.5357C9.74468 11.5357 10.1071 11.8982 10.1071 12.3452Z" fill="#4E4E4E"/>
<path d="M5.24998 9.91667C5.69706 9.91667 6.0595 9.55423 6.0595 9.10714C6.0595 8.66006 5.69706 8.29762 5.24998 8.29762C4.80289 8.29762 4.44045 8.66006 4.44045 9.10714C4.44045 9.55423 4.80289 9.91667 5.24998 9.91667Z" fill="#4E4E4E"/>
<path d="M5.24998 13.1548C5.69706 13.1548 6.0595 12.7923 6.0595 12.3452C6.0595 11.8982 5.69706 11.5357 5.24998 11.5357C4.80289 11.5357 4.44045 11.8982 4.44045 12.3452C4.44045 12.7923 4.80289 13.1548 5.24998 13.1548Z" fill="#4E4E4E"/>
<path fill-rule="evenodd" clip-rule="evenodd" d="M5.24998 0C5.58529 0 5.85712 0.271827 5.85712 0.607143V1.22458C6.39302 1.21427 6.98343 1.21428 7.63278 1.21429H10.9623C11.6117 1.21428 12.2022 1.21427 12.7381 1.22458V0.607143C12.7381 0.271827 13.0099 0 13.3452 0C13.6805 0 13.9524 0.271827 13.9524 0.607143V1.27669C14.1628 1.29273 14.3621 1.3129 14.5506 1.33825C15.4997 1.46586 16.2679 1.73471 16.8737 2.34053C17.4796 2.94635 17.7484 3.71454 17.876 4.66365C18 5.58586 18 6.76422 18 8.25192V9.96233C18 11.45 18 12.6284 17.876 13.5506C17.7484 14.4997 17.4795 15.2679 16.8737 15.8738C16.2679 16.4796 15.4997 16.7484 14.5506 16.876C13.6284 17 12.45 17 10.9623 17H7.63288C6.14519 17 4.96679 17 4.04458 16.876C3.09547 16.7484 2.32728 16.4796 1.72146 15.8738C1.11564 15.2679 0.846785 14.4997 0.719181 13.5506C0.595192 12.6284 0.595202 11.45 0.595215 9.96234V8.25195C0.595202 6.76424 0.595192 5.58587 0.719181 4.66365C0.846785 3.71454 1.11564 2.94635 1.72146 2.34053C2.32728 1.73471 3.09547 1.46586 4.04458 1.33825C4.23314 1.3129 4.4324 1.29273 4.64283 1.27669V0.607143C4.64283 0.271827 4.91466 0 5.24998 0ZM4.20638 2.54171C3.39193 2.65121 2.92269 2.85656 2.58009 3.19916C2.23749 3.54176 2.03214 4.011 1.92264 4.82545C1.90409 4.96338 1.88859 5.10859 1.87563 5.2619H16.7196C16.7066 5.10859 16.6911 4.96338 16.6726 4.82545C16.5631 4.011 16.3577 3.54176 16.0151 3.19916C15.6725 2.85656 15.2033 2.65121 14.3888 2.54171C13.5569 2.42986 12.4603 2.42857 10.9166 2.42857H7.67855C6.13493 2.42857 5.0383 2.42986 4.20638 2.54171ZM1.8095 8.29762C1.8095 7.60627 1.80976 7.00459 1.82009 6.47619H16.7751C16.7854 7.00459 16.7857 7.60627 16.7857 8.29762V9.91667C16.7857 11.4603 16.7844 12.5569 16.6726 13.3888C16.5631 14.2033 16.3577 14.6725 16.0151 15.0151C15.6725 15.3577 15.2033 15.5631 14.3888 15.6726C13.5569 15.7844 12.4603 15.7857 10.9166 15.7857H7.67855C6.13493 15.7857 5.0383 15.7844 4.20638 15.6726C3.39193 15.5631 2.92269 15.3577 2.58009 15.0151C2.23749 14.6725 2.03214 14.2033 1.92264 13.3888C1.81079 12.5569 1.8095 11.4603 1.8095 9.91667V8.29762Z" fill="#4E4E4E"/>
</g>
</svg>
