<svg width="15" height="15" viewBox="0 0 15 15" fill="none" xmlns="http://www.w3.org/2000/svg">
<path d="M5.56233 9.88963C5.56233 10.231 5.28562 10.5077 4.94428 10.5077C4.60294 10.5077 4.32623 10.231 4.32623 9.88963C4.32623 9.54829 4.60294 9.27158 4.94428 9.27158C5.28562 9.27158 5.56233 9.54829 5.56233 9.88963Z" fill="#4E4E4E"/>
<path d="M8.03451 9.88963C8.03451 10.231 7.7578 10.5077 7.41647 10.5077C7.07513 10.5077 6.79842 10.231 6.79842 9.88963C6.79842 9.54829 7.07513 9.27158 7.41647 9.27158C7.7578 9.27158 8.03451 9.54829 8.03451 9.88963Z" fill="#4E4E4E"/>
<path d="M9.88865 10.5077C10.23 10.5077 10.5067 10.231 10.5067 9.88963C10.5067 9.54829 10.23 9.27158 9.88865 9.27158C9.54732 9.27158 9.27061 9.54829 9.27061 9.88963C9.27061 10.231 9.54732 10.5077 9.88865 10.5077Z" fill="#4E4E4E"/>
<path fill-rule="evenodd" clip-rule="evenodd" d="M3.24465 4.94525V5.75043C3.10446 5.76028 2.97232 5.77312 2.84802 5.78983C2.29171 5.86462 1.82331 6.02463 1.45129 6.39664C1.07928 6.76866 0.919272 7.23706 0.844478 7.79337C0.772439 8.32919 0.772449 9.01048 0.772461 9.85571V9.92354C0.772449 10.7688 0.772439 11.4501 0.844478 11.9859C0.919272 12.5422 1.07928 13.0106 1.45129 13.3826C1.82331 13.7546 2.29171 13.9146 2.84802 13.9894C3.38384 14.0615 4.06513 14.0615 4.91037 14.0614H9.92257C10.7678 14.0615 11.4491 14.0615 11.9849 13.9894C12.5412 13.9146 13.0096 13.7546 13.3816 13.3826C13.7537 13.0106 13.9137 12.5422 13.9885 11.9859C14.0605 11.4501 14.0605 10.7688 14.0605 9.92354V9.85572C14.0605 9.01048 14.0605 8.3292 13.9885 7.79337C13.9137 7.23706 13.7537 6.76866 13.3816 6.39664C13.0096 6.02463 12.5412 5.86462 11.9849 5.78983C11.8606 5.77312 11.7285 5.76028 11.5883 5.75043V4.94525C11.5883 2.64122 9.7205 0.773438 7.41647 0.773438C5.11244 0.773438 3.24465 2.64122 3.24465 4.94525ZM7.41647 1.70051C5.62444 1.70051 4.17172 3.15323 4.17172 4.94525V5.71994C4.40255 5.71781 4.64856 5.71781 4.91028 5.71781H9.92257C10.1843 5.71781 10.4304 5.71781 10.6612 5.71994V4.94525C10.6612 3.15323 9.20849 1.70051 7.41647 1.70051ZM2.97155 6.70863C2.51804 6.76961 2.27788 6.88113 2.10683 7.05218C1.93578 7.22324 1.82425 7.46339 1.76328 7.9169C1.70052 8.38374 1.69953 9.00248 1.69953 9.88963C1.69953 10.7768 1.70052 11.3955 1.76328 11.8624C1.82425 12.3159 1.93578 12.556 2.10683 12.7271C2.27788 12.8981 2.51804 13.0097 2.97155 13.0706C3.43839 13.1334 4.05712 13.1344 4.94428 13.1344H9.88865C10.7758 13.1344 11.3945 13.1334 11.8614 13.0706C12.3149 13.0097 12.555 12.8981 12.7261 12.7271C12.8972 12.556 13.0087 12.3159 13.0697 11.8624C13.1324 11.3955 13.1334 10.7768 13.1334 9.88963C13.1334 9.00248 13.1324 8.38374 13.0697 7.9169C13.0087 7.46339 12.8972 7.22324 12.7261 7.05218C12.555 6.88113 12.3149 6.76961 11.8614 6.70863C11.3945 6.64587 10.7758 6.64488 9.88865 6.64488H4.94428C4.05712 6.64488 3.43839 6.64587 2.97155 6.70863Z" fill="#4E4E4E"/>
</svg>
