<svg width="14" height="16" viewBox="0 0 14 16" fill="none" xmlns="http://www.w3.org/2000/svg">
<path d="M5.3459 2.24995C5.57783 1.59377 6.20365 1.125 6.93752 1.125C7.67139 1.125 8.29722 1.59377 8.52915 2.24995C8.63267 2.54285 8.95404 2.69637 9.24694 2.59285C9.53985 2.48932 9.69337 2.16795 9.58984 1.87505C9.20401 0.78344 8.16298 0 6.93752 0C5.71206 0 4.67103 0.78344 4.28521 1.87505C4.18168 2.16795 4.3352 2.48932 4.6281 2.59285C4.921 2.69637 5.24237 2.54285 5.3459 2.24995Z" fill="white"/>
<path d="M0 3.5625C0 3.25184 0.25184 3 0.5625 3H13.3126C13.6232 3 13.8751 3.25184 13.8751 3.5625C13.8751 3.87316 13.6232 4.125 13.3126 4.125H0.5625C0.25184 4.125 0 3.87316 0 3.5625Z" fill="white"/>
<path d="M1.77514 4.87624C2.08511 4.85558 2.35315 5.09011 2.37381 5.40008L2.71877 10.5744C2.78616 11.5853 2.83418 12.2887 2.93961 12.8179C3.04187 13.3312 3.18462 13.6029 3.38968 13.7948C3.59474 13.9866 3.87536 14.111 4.39436 14.1789C4.92941 14.2489 5.63442 14.25 6.64755 14.25H7.22757C8.2407 14.25 8.94571 14.2489 9.48076 14.1789C9.99976 14.111 10.2804 13.9866 10.4854 13.7948C10.6905 13.6029 10.8332 13.3312 10.9355 12.8179C11.0409 12.2887 11.089 11.5853 11.1563 10.5744L11.5013 5.40008C11.522 5.09011 11.79 4.85558 12.1 4.87624C12.4099 4.89691 12.6445 5.16494 12.6238 5.47491L12.2762 10.6887C12.2121 11.6508 12.1603 12.4279 12.0388 13.0377C11.9125 13.6717 11.6977 14.2012 11.254 14.6163C10.8103 15.0314 10.2677 15.2105 9.62667 15.2944C9.01015 15.375 8.23131 15.375 7.26712 15.375H6.608C5.64381 15.375 4.86497 15.375 4.24844 15.2944C3.60746 15.2105 3.0648 15.0314 2.6211 14.6163C2.1774 14.2012 1.96259 13.6717 1.83629 13.0377C1.71481 12.4279 1.66301 11.6508 1.59889 10.6887L1.25131 5.47491C1.23064 5.16494 1.46517 4.89691 1.77514 4.87624Z" fill="white"/>
</svg>
