<svg width="16" height="18" viewBox="0 0 16 18" fill="none" xmlns="http://www.w3.org/2000/svg">
<path fill-rule="evenodd" clip-rule="evenodd" d="M7.20924 0.5C5.13496 0.5 3.45342 2.18154 3.45342 4.25581C3.45342 6.33009 5.13496 8.01163 7.20924 8.01163C9.28352 8.01163 10.9651 6.33009 10.9651 4.25581C10.9651 2.18154 9.28352 0.5 7.20924 0.5ZM4.63947 4.25581C4.63947 2.83657 5.78999 1.68605 7.20924 1.68605C8.62848 1.68605 9.779 2.83657 9.779 4.25581C9.779 5.67506 8.62848 6.82558 7.20924 6.82558C5.78999 6.82558 4.63947 5.67506 4.63947 4.25581Z" fill="#D9534F"/>
<path d="M11.3184 10.6892C11.0868 10.4576 10.7113 10.4576 10.4797 10.6892C10.2481 10.9208 10.2481 11.2963 10.4797 11.5279L11.1148 12.1629L10.48 12.7977C10.2484 13.0293 10.2484 13.4048 10.48 13.6364C10.7115 13.868 11.087 13.868 11.3186 13.6364L11.9534 13.0016L12.5882 13.6364C12.8198 13.868 13.1953 13.868 13.4269 13.6364C13.6585 13.4048 13.6585 13.0293 13.4269 12.7977L12.7921 12.1629L13.4271 11.5279C13.6587 11.2963 13.6587 10.9208 13.4271 10.6892C13.1956 10.4576 12.8201 10.4576 12.5885 10.6892L11.9534 11.3243L11.3184 10.6892Z" fill="#D9534F"/>
<path fill-rule="evenodd" clip-rule="evenodd" d="M7.20924 9.19767C7.97499 9.19767 8.71308 9.27046 9.40315 9.40555C10.0729 8.78577 10.9689 8.40698 11.9534 8.40698C14.0277 8.40698 15.7092 10.0885 15.7092 12.1628C15.7092 13.5545 14.9523 14.7694 13.8277 15.4183C13.5327 16.0583 12.9801 16.5667 12.048 16.9137C11.0124 17.2992 9.47704 17.5 7.20924 17.5C5.60746 17.5 4.37796 17.3995 3.43461 17.2086C2.49389 17.0182 1.79761 16.73 1.29989 16.3247C0.288567 15.5011 0.289688 14.3481 0.290581 13.4295L0.290633 13.3488C0.290633 12.0569 1.21534 11.008 2.44564 10.316C3.69453 9.61349 5.37992 9.19767 7.20924 9.19767ZM1.47668 13.3488C1.47668 12.6757 1.968 11.9455 3.02711 11.3497C4.06764 10.7644 5.54503 10.3837 7.20924 10.3837C7.68844 10.3837 8.1533 10.4153 8.59747 10.4746C8.34167 10.9822 8.19761 11.5557 8.19761 12.1628C8.19761 14.052 9.59247 15.6154 11.4085 15.8794C10.5619 16.1452 9.24764 16.314 7.20924 16.314C5.64822 16.314 4.50564 16.2153 3.66991 16.0461C2.83156 15.8764 2.3418 15.6436 2.04882 15.405C1.50856 14.965 1.47668 14.3829 1.47668 13.3488ZM11.9534 9.59302C10.5342 9.59302 9.38366 10.7435 9.38366 12.1628C9.38366 13.582 10.5342 14.7326 11.9534 14.7326C13.3727 14.7326 14.5232 13.582 14.5232 12.1628C14.5232 10.7435 13.3727 9.59302 11.9534 9.59302Z" fill="#D9534F"/>
</svg>
