<svg width="15" height="17" viewBox="0 0 15 17" fill="none" xmlns="http://www.w3.org/2000/svg">
<path d="M5.50606 3.18745C5.73798 2.53127 6.36381 2.0625 7.09768 2.0625C7.83155 2.0625 8.45738 2.53127 8.6893 3.18745C8.79283 3.48035 9.1142 3.63387 9.4071 3.53035C9.7 3.42682 9.85352 3.10545 9.75 2.81255C9.36417 1.72094 8.32314 0.9375 7.09768 0.9375C5.87222 0.9375 4.83119 1.72094 4.44536 2.81255C4.34184 3.10545 4.49535 3.42682 4.78826 3.53035C5.08116 3.63387 5.40253 3.48035 5.50606 3.18745Z" fill="#D9534F"/>
<path d="M0.160156 4.5C0.160156 4.18934 0.411996 3.9375 0.722656 3.9375H13.4727C13.7834 3.9375 14.0352 4.18934 14.0352 4.5C14.0352 4.81066 13.7834 5.0625 13.4727 5.0625H0.722656C0.411996 5.0625 0.160156 4.81066 0.160156 4.5Z" fill="#D9534F"/>
<path d="M1.9353 5.81374C2.24527 5.79308 2.51331 6.02761 2.53397 6.33758L2.87893 11.5119C2.94632 12.5228 2.99434 13.2262 3.09976 13.7554C3.20203 14.2687 3.34478 14.5404 3.54984 14.7323C3.7549 14.9241 4.03552 15.0485 4.55452 15.1164C5.08957 15.1864 5.79457 15.1875 6.8077 15.1875H7.38773C8.40086 15.1875 9.10586 15.1864 9.64091 15.1164C10.1599 15.0485 10.4405 14.9241 10.6456 14.7323C10.8507 14.5404 10.9934 14.2687 11.0957 13.7554C11.2011 13.2262 11.2491 12.5228 11.3165 11.5119L11.6615 6.33758C11.6821 6.02761 11.9502 5.79308 12.2601 5.81374C12.5701 5.83441 12.8046 6.10244 12.784 6.41242L12.4364 11.6262C12.3723 12.5883 12.3205 13.3654 12.199 13.9752C12.0727 14.6092 11.8579 15.1387 11.4142 15.5538C10.9705 15.9689 10.4278 16.148 9.78683 16.2319C9.1703 16.3125 8.39147 16.3125 7.42728 16.3125H6.76815C5.80396 16.3125 5.02513 16.3125 4.4086 16.2319C3.76761 16.148 3.22495 15.9689 2.78126 15.5538C2.33756 15.1387 2.12274 14.6092 1.99644 13.9752C1.87497 13.3654 1.82317 12.5883 1.75905 11.6262L1.41146 6.41242C1.3908 6.10244 1.62533 5.83441 1.9353 5.81374Z" fill="#D9534F"/>
</svg>
