<svg width="20" height="15" viewBox="0 0 20 15" fill="none" xmlns="http://www.w3.org/2000/svg">
<g id="eye">
<path id="Caminho 522" fill-rule="evenodd" clip-rule="evenodd" d="M12.1221 7.06348C12.1221 8.16803 11.2266 9.06348 10.1221 9.06348C9.0175 9.06348 8.12207 8.16803 8.12207 7.06348C8.12207 5.95891 9.0175 5.06348 10.1221 5.06348C11.2266 5.06348 12.1221 5.95891 12.1221 7.06348ZM11.1221 7.06348C11.1221 7.61578 10.6744 8.06348 10.1221 8.06348C9.56977 8.06348 9.12207 7.61578 9.12207 7.06348C9.12207 6.51118 9.56977 6.06348 10.1221 6.06348C10.6744 6.06348 11.1221 6.51118 11.1221 7.06348Z" fill="#4E4E4E" stroke="#4E4E4E" stroke-width="0.5"/>
<path id="Caminho 523" fill-rule="evenodd" clip-rule="evenodd" d="M10.1219 0.0634766C14.7512 0.0634766 18.641 3.03795 19.7438 7.06348C18.641 11.089 14.7512 14.0635 10.1219 14.0635C5.49266 14.0635 1.60288 11.089 0.5 7.06348C1.60288 3.03795 5.49266 0.0634766 10.1219 0.0634766ZM10.1219 12.5079C6.41657 12.5079 3.27621 10.2198 2.22138 7.06348C3.27621 3.90715 6.41657 1.61903 10.1219 1.61903C13.8273 1.61903 16.9677 3.90715 18.0225 7.06348C16.9677 10.2198 13.8273 12.5079 10.1219 12.5079Z" fill="#4E4E4E"/>
</g>
</svg>
