<svg width="18" height="16" viewBox="0 0 18 16" fill="none" xmlns="http://www.w3.org/2000/svg">
<path d="M11.011 0.0237366C11.38 0.122592 11.5989 0.50181 11.5 0.870744L7.83596 14.5453C7.7371 14.9142 7.35789 15.1332 6.98895 15.0343C6.62002 14.9355 6.40108 14.5562 6.49993 14.1873L10.164 0.512757C10.2629 0.143823 10.6421 -0.0751189 11.011 0.0237366Z" fill="#4E4E4E"/>
<path d="M13.0965 2.83829C13.352 2.55439 13.7892 2.53137 14.0731 2.78688L15.6753 4.22881C16.3543 4.83986 16.9175 5.34673 17.3042 5.80646C17.7109 6.28988 18 6.80926 18 7.4504C18 8.09154 17.7109 8.61092 17.3042 9.09434C16.9175 9.55407 16.3543 10.0609 15.6753 10.672L14.0731 12.1139C13.7892 12.3694 13.352 12.3464 13.0965 12.0625C12.8409 11.7786 12.864 11.3413 13.1479 11.0858L14.7122 9.67793C15.4387 9.02408 15.9285 8.5811 16.2458 8.20393C16.5503 7.84193 16.6168 7.6306 16.6168 7.4504C16.6168 7.2702 16.5503 7.05887 16.2458 6.69687C15.9285 6.3197 15.4387 5.87672 14.7122 5.22286L13.1479 3.81497C12.864 3.55946 12.8409 3.12219 13.0965 2.83829Z" fill="#4E4E4E"/>
<path d="M4.85214 3.81497C5.13604 3.55946 5.15906 3.12219 4.90355 2.83829C4.64804 2.55439 4.21076 2.53137 3.92686 2.78688L2.32471 4.22881C1.64573 4.83986 1.0825 5.34673 0.695758 5.80646C0.289085 6.28988 0 6.80926 0 7.4504C0 8.09154 0.289085 8.61092 0.695757 9.09434C1.0825 9.55406 1.64572 10.0609 2.32469 10.672L3.92686 12.1139C4.21076 12.3694 4.64804 12.3464 4.90355 12.0625C5.15906 11.7786 5.13604 11.3413 4.85214 11.0858L3.28782 9.67793C2.56132 9.02408 2.07149 8.5811 1.7542 8.20393C1.44967 7.84193 1.38316 7.6306 1.38316 7.4504C1.38316 7.2702 1.44967 7.05887 1.7542 6.69687C2.07149 6.3197 2.56132 5.87672 3.28782 5.22286L4.85214 3.81497Z" fill="#4E4E4E"/>
</svg>
