<svg width="16" height="18" viewBox="0 0 16 18" fill="none" xmlns="http://www.w3.org/2000/svg">
<path fill-rule="evenodd" clip-rule="evenodd" d="M3.45342 4.25581C3.45342 2.18154 5.13496 0.5 7.20924 0.5C9.28352 0.5 10.9651 2.18154 10.9651 4.25581C10.9651 6.33009 9.28352 8.01163 7.20924 8.01163C5.13496 8.01163 3.45342 6.33009 3.45342 4.25581ZM7.20924 1.68605C5.78999 1.68605 4.63947 2.83657 4.63947 4.25581C4.63947 5.67506 5.78999 6.82558 7.20924 6.82558C8.62848 6.82558 9.779 5.67506 9.779 4.25581C9.779 2.83657 8.62848 1.68605 7.20924 1.68605Z" fill="#D9534F"/>
<path fill-rule="evenodd" clip-rule="evenodd" d="M9.40315 9.40555C8.71308 9.27046 7.97499 9.19767 7.20924 9.19767C5.37992 9.19767 3.69453 9.61349 2.44564 10.316C1.21534 11.008 0.290633 12.0569 0.290633 13.3488L0.290581 13.4295C0.289688 14.3481 0.288567 15.5011 1.29989 16.3247C1.79761 16.73 2.49389 17.0182 3.43461 17.2086C4.37796 17.3995 5.60746 17.5 7.20924 17.5C9.47704 17.5 11.0124 17.2992 12.048 16.9137C12.9801 16.5667 13.5327 16.0583 13.8277 15.4183C14.9523 14.7694 15.7092 13.5545 15.7092 12.1628C15.7092 11.1258 15.2882 10.186 14.6091 9.50699C13.9301 8.828 12.9904 8.40698 11.9534 8.40698C10.9689 8.40698 10.0729 8.78577 9.40315 9.40555ZM3.02711 11.3497C1.968 11.9455 1.47668 12.6757 1.47668 13.3488C1.47668 14.3829 1.50856 14.965 2.04882 15.405C2.3418 15.6436 2.83156 15.8764 3.66991 16.0461C4.50564 16.2153 5.64822 16.314 7.20924 16.314C9.24773 16.314 10.562 16.1452 11.4086 15.8793C10.5894 15.7602 9.8555 15.3764 9.29763 14.8185C8.61863 14.1395 8.19761 13.1997 8.19761 12.1628C8.19761 11.5557 8.34167 10.9822 8.59747 10.4746C8.1533 10.4153 7.68844 10.3837 7.20924 10.3837C5.54503 10.3837 4.06764 10.7644 3.02711 11.3497ZM9.38366 12.1628C9.38366 10.7435 10.5342 9.59302 11.9534 9.59302C12.4484 9.59302 12.9103 9.73261 13.3024 9.97504L9.76568 13.5118C9.52324 13.1197 9.38366 12.6578 9.38366 12.1628ZM10.6043 14.3505L14.1411 10.8137C14.3836 11.2059 14.5232 11.6677 14.5232 12.1628C14.5232 13.582 13.3727 14.7326 11.9534 14.7326C11.4584 14.7326 10.9965 14.593 10.6043 14.3505Z" fill="#D9534F"/>
</svg>
