<svg width="11" height="11" viewBox="0 0 11 11" fill="none" xmlns="http://www.w3.org/2000/svg">
<path d="M5.4167 0.0078125C5.6727 0.0078125 5.88024 0.215344 5.88024 0.471348C5.88024 0.727351 5.6727 0.934883 5.4167 0.934883C2.942 0.934883 0.935859 2.94102 0.935859 5.41572C0.935859 7.89042 2.942 9.89656 5.4167 9.89656C5.6727 9.89656 5.88024 10.1041 5.88024 10.3601C5.88024 10.6161 5.6727 10.8236 5.4167 10.8236C2.42999 10.8236 0.00878906 8.40243 0.00878906 5.41572C0.00878906 2.42902 2.42999 0.0078125 5.4167 0.0078125Z" fill="#4E4E4E"/>
<path d="M8.17916 3.88935C7.99814 3.70833 7.99814 3.41484 8.17916 3.23381C8.36019 3.05279 8.65368 3.05279 8.8347 3.23381L10.6888 5.08795C10.8699 5.26898 10.8699 5.56247 10.6888 5.74349L8.8347 7.59763C8.65368 7.77865 8.36019 7.77865 8.17916 7.59763C7.99814 7.41661 7.99814 7.12312 8.17916 6.94209L9.242 5.87926H4.18061C3.9246 5.87926 3.71707 5.67173 3.71707 5.41572C3.71707 5.15972 3.9246 4.95219 4.18061 4.95219H9.242L8.17916 3.88935Z" fill="#4E4E4E"/>
</svg>
