<svg width="4" height="16" viewBox="0 0 4 16" fill="none" xmlns="http://www.w3.org/2000/svg">
<path fill-rule="evenodd" clip-rule="evenodd" d="M2 15.5C0.895431 15.5 0 14.5529 0 13.3846C0 12.2163 0.895431 11.2692 2 11.2692C3.10457 11.2692 4 12.2163 4 13.3846C4 14.5529 3.10457 15.5 2 15.5ZM1.09091 13.3846C1.09091 13.9157 1.49792 14.3462 2 14.3462C2.50208 14.3462 2.90909 13.9157 2.90909 13.3846C2.90909 12.8536 2.50208 12.4231 2 12.4231C1.49792 12.4231 1.09091 12.8536 1.09091 13.3846Z" fill="white"/>
<path fill-rule="evenodd" clip-rule="evenodd" d="M2 10.1154C0.895431 10.1154 0 9.16829 0 8C0 6.83171 0.895431 5.88461 2 5.88461C3.10457 5.88461 4 6.83171 4 8C4 9.16829 3.10457 10.1154 2 10.1154ZM1.09091 8C1.09091 8.53104 1.49792 8.96154 2 8.96154C2.50208 8.96154 2.90909 8.53104 2.90909 8C2.90909 7.46896 2.50208 7.03846 2 7.03846C1.49792 7.03846 1.09091 7.46896 1.09091 8Z" fill="white"/>
<path fill-rule="evenodd" clip-rule="evenodd" d="M0 2.61538C0 3.78368 0.895431 4.73077 2 4.73077C3.10457 4.73077 4 3.78368 4 2.61538C4 1.44709 3.10457 0.5 2 0.5C0.895431 0.5 0 1.44709 0 2.61538ZM2 3.57692C1.49792 3.57692 1.09091 3.14643 1.09091 2.61538C1.09091 2.08434 1.49792 1.65385 2 1.65385C2.50208 1.65385 2.90909 2.08434 2.90909 2.61538C2.90909 3.14643 2.50208 3.57692 2 3.57692Z" fill="white"/>
</svg>
