<svg width="18" height="20" viewBox="0 0 18 20" fill="none" xmlns="http://www.w3.org/2000/svg">
<path d="M13.2031 16.1637C13.7952 16.0458 14.3839 15.9029 14.9678 15.7348C16.8759 15.1856 17.7041 12.8324 16.6137 11.1062L15.7026 9.66381C15.4062 9.19459 15.2477 8.64274 15.2477 8.07785V7.48837C15.2477 3.85486 12.4555 0.9 9 0.9C5.54445 0.9 2.75226 3.85486 2.75226 7.48837V8.07785C2.75226 8.64274 2.5938 9.19458 2.29741 9.66381L1.38627 11.1062C0.295907 12.8324 1.12414 15.1856 3.03221 15.7348C3.6161 15.9029 4.20478 16.0458 4.79682 16.1637C5.43414 17.894 7.08835 19.1 8.99995 19.1C10.9115 19.1 12.5657 17.894 13.2031 16.1637ZM8.99995 17.6442C7.98366 17.6442 7.09439 17.1641 6.53443 16.4364C8.17318 16.6256 9.8267 16.6256 11.4655 16.4365C10.9055 17.1642 10.0162 17.6442 8.99995 17.6442ZM4.14214 7.48837C4.14214 4.64859 6.32209 2.35581 9 2.35581C11.6779 2.35581 13.8579 4.64859 13.8579 7.48837V8.07785C13.8579 8.92783 14.0962 9.7592 14.5435 10.4672L15.4546 11.9096C16.0287 12.8185 15.5862 14.047 14.5994 14.3311C10.9334 15.3863 7.06663 15.3863 3.40061 14.3311C2.41376 14.047 1.97131 12.8185 2.54541 11.9096L3.45655 10.4672C3.90378 9.7592 4.14214 8.92783 4.14214 8.07785V7.48837Z" fill="#4E4E4E" stroke="#4E4E4E" stroke-width="0.2"/>
</svg>
