<svg width="17" height="17" viewBox="0 0 17 17" fill="none" xmlns="http://www.w3.org/2000/svg">
<path fill-rule="evenodd" clip-rule="evenodd" d="M6.94641 1.65191e-05H10.0537C10.2525 -0.000103827 10.4257 -0.000208636 10.5893 0.024574C11.2356 0.122481 11.7949 0.504896 12.0971 1.0556C12.1736 1.19499 12.2283 1.35094 12.2911 1.52995L12.3936 1.82191C12.411 1.87133 12.416 1.88532 12.4202 1.89634C12.5811 2.31839 12.9983 2.60369 13.4712 2.61506C13.4837 2.61536 13.4989 2.61541 13.5541 2.61541H16.3108C16.6914 2.61541 17 2.90815 17 3.26926C17 3.63037 16.6914 3.9231 16.3108 3.9231H0.689186C0.308559 3.9231 0 3.63037 0 3.26926C0 2.90815 0.308559 2.61541 0.689186 2.61541H3.44601C3.50118 2.61541 3.51641 2.61536 3.52885 2.61506C4.00177 2.60369 4.41897 2.31841 4.57989 1.89636C4.58412 1.88526 4.58899 1.87157 4.60644 1.82191L4.709 1.52997C4.77175 1.35097 4.82644 1.19499 4.90295 1.0556C5.20522 0.504898 5.76447 0.122481 6.41074 0.024574C6.57433 -0.000208636 6.74756 -0.000103827 6.94641 1.65191e-05ZM5.75071 2.61541C5.79804 2.52734 5.83998 2.43582 5.87607 2.34118C5.88703 2.31244 5.89777 2.28185 5.91158 2.24255L6.00329 1.98152C6.08707 1.74308 6.10636 1.69444 6.12549 1.65958C6.22625 1.47601 6.41267 1.34854 6.62809 1.3159C6.66901 1.3097 6.72373 1.30772 6.98866 1.30772H10.0114C10.2764 1.30772 10.3311 1.3097 10.372 1.3159C10.5874 1.34854 10.7738 1.47601 10.8746 1.65958C10.8937 1.69444 10.913 1.74307 10.9968 1.98152L11.0884 2.24239L11.124 2.3412C11.1601 2.43584 11.202 2.52735 11.2494 2.61541H5.75071Z" fill="#D9534F"/>
<path d="M2.90845 5.40525C2.88313 5.04494 2.55473 4.77232 2.17494 4.79634C1.79516 4.82036 1.50781 5.13193 1.53313 5.49223L1.959 11.5527C2.03756 12.671 2.10102 13.5743 2.24986 14.2831C2.4046 15.0201 2.6678 15.6356 3.21143 16.1181C3.75505 16.6006 4.41993 16.8088 5.20528 16.9063C5.96065 17 6.91487 17 8.09619 17H8.90382C10.0851 17 11.0394 17 11.7948 16.9063C12.5801 16.8088 13.245 16.6006 13.7887 16.1181C14.3323 15.6356 14.5955 15.0201 14.7502 14.2831C14.8991 13.5743 14.9625 12.671 15.0411 11.5527L15.4669 5.49223C15.4923 5.13193 15.2049 4.82036 14.8251 4.79634C14.4453 4.77232 14.1169 5.04494 14.0916 5.40525L13.669 11.4198C13.5864 12.5949 13.5276 13.4125 13.3984 14.0276C13.2731 14.6243 13.0982 14.9402 12.847 15.1632C12.5957 15.3862 12.2519 15.5307 11.616 15.6096C10.9605 15.691 10.0967 15.6923 8.85536 15.6923H8.14471C6.9034 15.6923 6.03962 15.691 5.38406 15.6096C4.74817 15.5307 4.40435 15.3862 4.15311 15.1632C3.90186 14.9402 3.72696 14.6243 3.60167 14.0276C3.4725 13.4125 3.41366 12.5949 3.33109 11.4198L2.90845 5.40525Z" fill="#D9534F"/>
<path d="M6.13418 6.97762C6.51292 6.94169 6.85065 7.20385 6.88852 7.56316L7.34798 11.9221C7.38586 12.2814 7.10953 12.6019 6.73079 12.6378C6.35206 12.6737 6.01432 12.4116 5.97645 12.0522L5.51699 7.69328C5.47912 7.33397 5.75544 7.01356 6.13418 6.97762Z" fill="#D9534F"/>
<path d="M10.8659 6.97762C11.2446 7.01356 11.521 7.33397 11.4831 7.69328L11.0236 12.0522C10.9858 12.4116 10.648 12.6737 10.2693 12.6378C9.89056 12.6019 9.61423 12.2814 9.65211 11.9221L10.1116 7.56316C10.1494 7.20385 10.4872 6.94169 10.8659 6.97762Z" fill="#D9534F"/>
</svg>
