<svg width="18" height="18" viewBox="0 0 18 18" fill="none" xmlns="http://www.w3.org/2000/svg">
<path fill-rule="evenodd" clip-rule="evenodd" d="M3.6629 4.25581C3.6629 2.18154 5.34443 0.5 7.41871 0.5C9.49299 0.5 11.1745 2.18154 11.1745 4.25581C11.1745 6.33009 9.49299 8.01163 7.41871 8.01163C5.34443 8.01163 3.6629 6.33009 3.6629 4.25581ZM7.41871 1.68605C5.99947 1.68605 4.84894 2.83657 4.84894 4.25581C4.84894 5.67506 5.99947 6.82558 7.41871 6.82558C8.83795 6.82558 9.98848 5.67506 9.98848 4.25581C9.98848 2.83657 8.83795 1.68605 7.41871 1.68605Z" fill="#4E4E4E"/>
<path fill-rule="evenodd" clip-rule="evenodd" d="M2.65511 10.316C3.904 9.61349 5.58939 9.19767 7.41871 9.19767C9.24803 9.19767 10.9334 9.61349 12.1823 10.316C13.4126 11.008 14.3373 12.0569 14.3373 13.3488L14.3374 13.4295C14.3383 14.3481 14.3394 15.5011 13.3281 16.3247C12.8303 16.73 12.1341 17.0182 11.1933 17.2086C10.25 17.3995 9.02049 17.5 7.41871 17.5C5.81694 17.5 4.58743 17.3995 3.64409 17.2086C2.70337 17.0182 2.00708 16.73 1.50936 16.3247C0.498039 15.5011 0.49916 14.3481 0.500054 13.4295L0.500106 13.3488C0.500106 12.0569 1.42481 11.008 2.65511 10.316ZM3.23659 11.3497C2.17747 11.9455 1.68615 12.6757 1.68615 13.3488C1.68615 14.3829 1.71803 14.965 2.25829 15.405C2.55127 15.6436 3.04103 15.8764 3.87938 16.0461C4.71511 16.2153 5.8577 16.314 7.41871 16.314C8.97973 16.314 10.1223 16.2153 10.958 16.0461C11.7964 15.8764 12.2862 15.6436 12.5791 15.405C13.1194 14.965 13.1513 14.3829 13.1513 13.3488C13.1513 12.6757 12.6599 11.9455 11.6008 11.3497C10.5603 10.7644 9.08291 10.3837 7.41871 10.3837C5.75451 10.3837 4.27711 10.7644 3.23659 11.3497Z" fill="#4E4E4E"/>
<path fill-rule="evenodd" clip-rule="evenodd" d="M12.7087 5.3999C13.2785 5.14774 13.9403 5.19554 14.535 5.5833C15.1297 5.19554 15.7915 5.14774 16.3613 5.3999C17.0374 5.6991 17.5001 6.39014 17.5001 7.18118C17.5001 7.93106 17.1726 8.49554 16.7801 8.92338C16.4738 9.25728 16.095 9.53927 15.7957 9.76195C15.7315 9.80978 15.6709 9.85488 15.6155 9.89717L15.6139 9.89838C15.4963 9.98811 15.3442 10.1042 15.1839 10.1949C15.0227 10.2861 14.7994 10.3837 14.535 10.3837C14.2706 10.3837 14.0473 10.2861 13.886 10.1949C13.7257 10.1042 13.5737 9.98812 13.4561 9.89838L13.4545 9.89717C13.3991 9.85491 13.3386 9.80985 13.2744 9.76205C12.9752 9.53937 12.5961 9.25728 12.2898 8.92338C11.8974 8.49554 11.5699 7.93106 11.5699 7.18118C11.5699 6.39014 12.0326 5.6991 12.7087 5.3999ZM12.7559 7.18118C12.7559 6.85543 12.9455 6.59208 13.1887 6.48449C13.3992 6.39133 13.7343 6.38179 14.1144 6.76416C14.2257 6.87612 14.3771 6.93908 14.535 6.93908C14.6929 6.93908 14.8442 6.87612 14.9555 6.76416C15.3357 6.38179 15.6708 6.39133 15.8813 6.48449C16.1244 6.59208 16.3141 6.85543 16.3141 7.18118C16.3141 7.54808 16.1649 7.83956 15.9061 8.12164C15.6831 8.36473 15.4172 8.56352 15.1231 8.7833C15.0491 8.83863 14.9733 8.8953 14.8959 8.95434C14.7674 9.05241 14.6784 9.11818 14.5999 9.16256C14.5682 9.18049 14.5471 9.18966 14.535 9.19421C14.5229 9.18966 14.5017 9.18049 14.47 9.16256C14.3916 9.11818 14.3026 9.05241 14.1741 8.95434C14.0967 8.89532 14.0209 8.83867 13.9469 8.78334C13.6529 8.56356 13.3869 8.36473 13.1639 8.12164C12.9051 7.83956 12.7559 7.54808 12.7559 7.18118Z" fill="#4E4E4E"/>
</svg>
