<svg width="16" height="16" viewBox="0 0 16 16" fill="none" xmlns="http://www.w3.org/2000/svg">
<path d="M8.61947 5.88411C8.61947 5.59071 8.38162 5.35286 8.08822 5.35286C7.79482 5.35286 7.55697 5.59071 7.55697 5.88411L7.55697 7.47788H5.96322C5.66982 7.47788 5.43197 7.71573 5.43197 8.00913C5.43197 8.30253 5.66982 8.54038 5.96322 8.54038H7.55697V10.1341C7.55697 10.4275 7.79481 10.6654 8.08822 10.6654C8.38162 10.6654 8.61947 10.4275 8.61947 10.1341L8.61947 8.54038H10.2132C10.5066 8.54038 10.7445 8.30253 10.7445 8.00913C10.7445 7.71573 10.5066 7.47788 10.2132 7.47788H8.61947V5.88411Z" fill="#1C274C"/>
<path fill-rule="evenodd" clip-rule="evenodd" d="M8.12886 0.394531H8.04757C6.41247 0.394523 5.13106 0.394516 4.13126 0.528935C3.1079 0.666522 2.30039 0.953638 1.66656 1.58746C1.03274 2.22129 0.745623 3.0288 0.608037 4.05216C0.473617 5.05196 0.473624 6.33335 0.473633 7.96846V8.04976C0.473624 9.68486 0.473617 10.9663 0.608037 11.9661C0.745623 12.9894 1.03274 13.7969 1.66656 14.4308C2.30039 15.0646 3.1079 15.3517 4.13126 15.4893C5.13106 15.6237 6.41246 15.6237 8.04758 15.6237H8.12886C9.76397 15.6237 11.0454 15.6237 12.0452 15.4893C13.0685 15.3517 13.876 15.0646 14.5099 14.4308C15.1437 13.7969 15.4308 12.9894 15.5684 11.9661C15.7028 10.9663 15.7028 9.68487 15.7028 8.04975V7.96848C15.7028 6.33336 15.7028 5.05196 15.5684 4.05216C15.4308 3.0288 15.1437 2.22129 14.5099 1.58746C13.876 0.953638 13.0685 0.666522 12.0452 0.528935C11.0454 0.394516 9.76396 0.394523 8.12886 0.394531ZM2.41786 2.33876C2.82137 1.93526 3.3673 1.70371 4.27283 1.58196C5.19365 1.45816 6.40364 1.45703 8.08822 1.45703C9.77279 1.45703 10.9828 1.45816 11.9036 1.58196C12.8091 1.70371 13.3551 1.93526 13.7586 2.33876C14.1621 2.74227 14.3936 3.2882 14.5154 4.19373C14.6392 5.11455 14.6403 6.32454 14.6403 8.00912C14.6403 9.69369 14.6392 10.9037 14.5154 11.8245C14.3936 12.73 14.1621 13.276 13.7586 13.6795C13.3551 14.083 12.8091 14.3145 11.9036 14.4363C10.9828 14.5601 9.77279 14.5612 8.08822 14.5612C6.40364 14.5612 5.19365 14.5601 4.27283 14.4363C3.3673 14.3145 2.82137 14.083 2.41786 13.6795C2.01436 13.276 1.78281 12.73 1.66106 11.8245C1.53726 10.9037 1.53613 9.69369 1.53613 8.00912C1.53613 6.32454 1.53726 5.11455 1.66106 4.19373C1.78281 3.2882 2.01436 2.74227 2.41786 2.33876Z" fill="#1C274C"/>
</svg>
