<svg width="18" height="19" viewBox="0 0 18 19" fill="none" xmlns="http://www.w3.org/2000/svg">
<path fill-rule="evenodd" clip-rule="evenodd" d="M8.5814 1.75581C4.53559 1.75581 1.25581 5.03559 1.25581 9.0814C1.25581 13.1272 4.53559 16.407 8.5814 16.407C12.6272 16.407 15.907 13.1272 15.907 9.0814C15.907 5.03559 12.6272 1.75581 8.5814 1.75581ZM0 9.0814C0 4.34202 3.84202 0.5 8.5814 0.5C13.3208 0.5 17.1628 4.34202 17.1628 9.0814C17.1628 11.2251 16.3768 13.1852 15.0772 14.6892L17.8161 17.4281C18.0613 17.6733 18.0613 18.0709 17.8161 18.3161C17.5709 18.5613 17.1733 18.5613 16.9281 18.3161L14.1892 15.5772C12.6852 16.8768 10.7251 17.6628 8.5814 17.6628C3.84202 17.6628 0 13.8208 0 9.0814Z" fill="#4E4E4E"/>
</svg>
