<svg width="21" height="18" viewBox="0 0 21 18" fill="none" xmlns="http://www.w3.org/2000/svg">
<path fill-rule="evenodd" clip-rule="evenodd" d="M7.96213 0.500001C6.86168 0.499978 5.96238 0.49996 5.2524 0.595413C4.51028 0.695189 3.86687 0.91112 3.35328 1.42471C2.83969 1.9383 2.62376 2.58171 2.52398 3.32383C2.42853 4.03381 2.42855 4.93309 2.42857 6.03356L2.42857 11.1914C2.28437 11.1953 2.15058 11.202 2.02771 11.2131C1.70794 11.2421 1.39129 11.3062 1.09286 11.4785C0.760589 11.6704 0.484669 11.9463 0.292832 12.2786C0.120531 12.577 0.0563614 12.8936 0.027379 13.2134C-2.7648e-05 13.5158 -1.45146e-05 13.8843 7.14349e-07 14.3115V14.3742C-1.45146e-05 14.8014 -2.76498e-05 15.1699 0.027379 15.4723C0.0563614 15.7921 0.120531 16.1087 0.292832 16.4071C0.484669 16.7394 0.760589 17.0153 1.09286 17.2072C1.39129 17.3795 1.70794 17.4436 2.02771 17.4726C2.33009 17.5 2.69856 17.5 3.12574 17.5H3.18845C3.61563 17.5 3.9842 17.5 4.28658 17.4726C4.60635 17.4436 4.92299 17.3795 5.22143 17.2072C5.5537 17.0153 5.82962 16.7394 6.02146 16.4071C6.19376 16.1087 6.25793 15.7921 6.28691 15.4723C6.31432 15.1699 6.3143 14.8014 6.31429 14.3742V14.3116C6.3143 13.8843 6.31432 13.5158 6.28691 13.2134C6.25793 12.8936 6.19376 12.577 6.02146 12.2786C5.82962 11.9463 5.5537 11.6704 5.22143 11.4785C4.92299 11.3062 4.60635 11.2421 4.28658 11.2131C4.1637 11.202 4.02992 11.1953 3.88572 11.1914V6.08571C3.88572 4.92028 3.88726 4.1195 3.96813 3.51799C4.04619 2.93745 4.18591 2.65279 4.38363 2.45506C4.58136 2.25734 4.86602 2.11761 5.44656 2.03956C6.04807 1.95869 6.84885 1.95714 8.01429 1.95714H12.8714C14.0369 1.95714 14.8376 1.95869 15.4391 2.03956C16.0197 2.11761 16.3044 2.25734 16.5021 2.45506C16.6998 2.65279 16.8395 2.93745 16.9176 3.51799C16.9984 4.1195 17 4.92028 17 6.08571V7.24107L16.3009 6.54197C16.0164 6.25744 15.5551 6.25744 15.2705 6.54197C14.986 6.82649 14.986 7.2878 15.2705 7.57232L17.2134 9.51518C17.4979 9.7997 17.9592 9.7997 18.2437 9.51518L20.1866 7.57232C20.4711 7.2878 20.4711 6.82649 20.1866 6.54197C19.9021 6.25744 19.4408 6.25744 19.1562 6.54197L18.4571 7.24107V6.03356C18.4572 4.93309 18.4572 4.03381 18.3617 3.32383C18.262 2.58171 18.046 1.9383 17.5324 1.42471C17.0188 0.91112 16.3754 0.695189 15.6333 0.595413C14.9233 0.49996 14.0241 0.499978 12.9236 0.500001H7.96213ZM3.15714 12.6429C2.68978 12.6429 2.38797 12.6436 2.15924 12.6643C1.94053 12.6841 1.86113 12.7175 1.82143 12.7405C1.71067 12.8044 1.6187 12.8964 1.55475 13.0071C1.53184 13.0468 1.4984 13.1262 1.47857 13.345C1.45784 13.5737 1.45714 13.8755 1.45714 14.3429C1.45714 14.8102 1.45784 15.112 1.47857 15.3408C1.4984 15.5595 1.53184 15.6389 1.55475 15.6786C1.6187 15.7893 1.71067 15.8813 1.82143 15.9452C1.86113 15.9682 1.94053 16.0016 2.15924 16.0214C2.38797 16.0422 2.68978 16.0429 3.15714 16.0429C3.62451 16.0429 3.92632 16.0422 4.15505 16.0214C4.37376 16.0016 4.45316 15.9682 4.49286 15.9452C4.60362 15.8813 4.69559 15.7893 4.75953 15.6786C4.78245 15.6389 4.81589 15.5595 4.83572 15.3408C4.85645 15.112 4.85714 14.8102 4.85714 14.3429C4.85714 13.8755 4.85645 13.5737 4.83572 13.345C4.81589 13.1262 4.78245 13.0468 4.75953 13.0071C4.69559 12.8964 4.60362 12.8044 4.49286 12.7405C4.45316 12.7175 4.37376 12.6841 4.15505 12.6643C3.92632 12.6436 3.62451 12.6429 3.15714 12.6429Z" fill="white"/>
<path fill-rule="evenodd" clip-rule="evenodd" d="M10.4116 11.1857C9.98434 11.1857 9.61581 11.1857 9.31343 11.2131C8.99365 11.2421 8.67701 11.3062 8.37857 11.4785C8.0463 11.6704 7.77038 11.9463 7.57854 12.2786C7.40624 12.577 7.34207 12.8936 7.31309 13.2134C7.28568 13.5158 7.2857 13.8843 7.28571 14.3115V14.3742C7.2857 14.8014 7.28568 15.1699 7.31309 15.4723C7.34207 15.7921 7.40624 16.1087 7.57854 16.4071C7.77038 16.7394 8.0463 17.0153 8.37857 17.2072C8.67701 17.3795 8.99365 17.4436 9.31343 17.4726C9.6158 17.5 9.98427 17.5 10.4115 17.5H10.4742C10.9013 17.5 11.2699 17.5 11.5723 17.4726C11.8921 17.4436 12.2087 17.3795 12.5071 17.2072C12.8394 17.0153 13.1153 16.7394 13.3072 16.4071C13.4795 16.1087 13.5436 15.7921 13.5726 15.4723C13.6 15.1699 13.6 14.8014 13.6 14.3742V14.3116C13.6 13.8844 13.6 13.5158 13.5726 13.2134C13.5436 12.8936 13.4795 12.577 13.3072 12.2786C13.1153 11.9463 12.8394 11.6704 12.5071 11.4785C12.2087 11.3062 11.8921 11.2421 11.5723 11.2131C11.2699 11.1857 10.9014 11.1857 10.4742 11.1857H10.4116ZM9.10714 12.7405C9.14684 12.7175 9.22624 12.6841 9.44495 12.6643C9.67368 12.6436 9.97549 12.6429 10.4429 12.6429C10.9102 12.6429 11.212 12.6436 11.4408 12.6643C11.6595 12.6841 11.7389 12.7175 11.7786 12.7405C11.8893 12.8044 11.9813 12.8964 12.0452 13.0071C12.0682 13.0468 12.1016 13.1262 12.1214 13.345C12.1422 13.5737 12.1429 13.8755 12.1429 14.3429C12.1429 14.8102 12.1422 15.112 12.1214 15.3408C12.1016 15.5595 12.0682 15.6389 12.0452 15.6786C11.9813 15.7893 11.8893 15.8813 11.7786 15.9452C11.7389 15.9682 11.6595 16.0016 11.4408 16.0214C11.212 16.0422 10.9102 16.0429 10.4429 16.0429C9.97549 16.0429 9.67368 16.0422 9.44495 16.0214C9.22624 16.0016 9.14684 15.9682 9.10714 15.9452C8.99639 15.8813 8.90441 15.7893 8.84047 15.6786C8.81755 15.6389 8.78411 15.5595 8.76429 15.3408C8.74356 15.112 8.74286 14.8102 8.74286 14.3429C8.74286 13.8755 8.74356 13.5737 8.76429 13.345C8.78411 13.1262 8.81755 13.0468 8.84047 13.0071C8.90441 12.8964 8.99639 12.8044 9.10714 12.7405Z" fill="white"/>
<path fill-rule="evenodd" clip-rule="evenodd" d="M17.6973 11.1857H17.7599C18.1871 11.1857 18.5556 11.1857 18.858 11.2131C19.1778 11.2421 19.4944 11.3062 19.7929 11.4785C20.1251 11.6704 20.401 11.9463 20.5929 12.2786C20.7652 12.577 20.8294 12.8936 20.8583 13.2134C20.8857 13.5158 20.8857 13.8843 20.8857 14.3115V14.3742C20.8857 14.8013 20.8857 15.1699 20.8583 15.4723C20.8294 15.7921 20.7652 16.1087 20.5929 16.4071C20.401 16.7394 20.1251 17.0153 19.7929 17.2072C19.4944 17.3795 19.1778 17.4436 18.858 17.4726C18.5556 17.5 18.1872 17.5 17.76 17.5H17.6973C17.2701 17.5 16.9015 17.5 16.5991 17.4726C16.2794 17.4436 15.9627 17.3795 15.6643 17.2072C15.332 17.0153 15.0561 16.7394 14.8643 16.4071C14.692 16.1087 14.6278 15.7921 14.5988 15.4723C14.5714 15.1699 14.5714 14.8014 14.5714 14.3742V14.3116C14.5714 13.8843 14.5714 13.5158 14.5988 13.2134C14.6278 12.8936 14.692 12.577 14.8643 12.2786C15.0561 11.9463 15.332 11.6704 15.6643 11.4785C15.9627 11.3062 16.2794 11.2421 16.5991 11.2131C16.9015 11.1857 17.2701 11.1857 17.6973 11.1857ZM16.7307 12.6643C16.512 12.6841 16.4326 12.7175 16.3929 12.7405C16.2821 12.8044 16.1901 12.8964 16.1262 13.0071C16.1033 13.0468 16.0698 13.1262 16.05 13.345C16.0293 13.5737 16.0286 13.8755 16.0286 14.3429C16.0286 14.8102 16.0293 15.112 16.05 15.3408C16.0698 15.5595 16.1033 15.6389 16.1262 15.6786C16.1901 15.7893 16.2821 15.8813 16.3929 15.9452C16.4326 15.9682 16.512 16.0016 16.7307 16.0214C16.9594 16.0422 17.2612 16.0429 17.7286 16.0429C18.1959 16.0429 18.4977 16.0422 18.7265 16.0214C18.9452 16.0016 19.0246 15.9682 19.0643 15.9452C19.175 15.8813 19.267 15.7893 19.331 15.6786C19.3539 15.6389 19.3873 15.5595 19.4071 15.3408C19.4279 15.112 19.4286 14.8102 19.4286 14.3429C19.4286 13.8755 19.4279 13.5737 19.4071 13.345C19.3873 13.1262 19.3539 13.0468 19.331 13.0071C19.267 12.8964 19.175 12.8044 19.0643 12.7405C19.0246 12.7175 18.9452 12.6841 18.7265 12.6643C18.4977 12.6436 18.1959 12.6429 17.7286 12.6429C17.2612 12.6429 16.9594 12.6436 16.7307 12.6643Z" fill="white"/>
</svg>
