<svg width="13" height="15" viewBox="0 0 13 15" fill="none" xmlns="http://www.w3.org/2000/svg">
<path fill-rule="evenodd" clip-rule="evenodd" d="M6.41658 5.09977C5.13657 5.09977 4.09891 6.13742 4.09891 7.41744C4.09891 8.69746 5.13657 9.73512 6.41658 9.73512C7.6966 9.73512 8.73426 8.69746 8.73426 7.41744C8.73426 6.13742 7.6966 5.09977 6.41658 5.09977ZM5.02598 7.41744C5.02598 6.64943 5.64857 6.02684 6.41658 6.02684C7.18459 6.02684 7.80719 6.64943 7.80719 7.41744C7.80719 8.18545 7.18459 8.80805 6.41658 8.80805C5.64857 8.80805 5.02598 8.18545 5.02598 7.41744Z" fill="#4E4E4E"/>
<path fill-rule="evenodd" clip-rule="evenodd" d="M6.41658 0.773438C5.98111 0.773438 5.58337 0.893087 5.14871 1.09505C4.72813 1.29047 4.2413 1.57878 3.63202 1.9396L3.16657 2.21524C2.55708 2.57617 2.0703 2.86444 1.69518 3.14021C1.30728 3.42537 1.00976 3.71726 0.794423 4.09984C0.579424 4.48181 0.48235 4.89022 0.435777 5.37484C0.390616 5.84476 0.39062 6.42023 0.390625 7.14302V7.69186C0.39062 8.41466 0.390616 8.99013 0.435777 9.46005C0.48235 9.94467 0.579424 10.3531 0.794423 10.735C1.00976 11.1176 1.30728 11.4095 1.69517 11.6947C2.0703 11.9704 2.55708 12.2587 3.16657 12.6196L3.63203 12.8953C4.24129 13.2561 4.72814 13.5444 5.14871 13.7398C5.58337 13.9418 5.98111 14.0614 6.41658 14.0614C6.85205 14.0614 7.2498 13.9418 7.68446 13.7398C8.10503 13.5444 8.59186 13.2561 9.20114 12.8953L9.66658 12.6197C10.2761 12.2587 10.7629 11.9704 11.138 11.6947C11.5259 11.4095 11.8234 11.1176 12.0387 10.735C12.2537 10.3531 12.3508 9.94467 12.3974 9.46005C12.4425 8.99013 12.4425 8.41467 12.4425 7.69189V7.14304C12.4425 6.42026 12.4425 5.84475 12.3974 5.37484C12.3508 4.89022 12.2537 4.48181 12.0387 4.09984C11.8234 3.71726 11.5259 3.42537 11.138 3.14021C10.7629 2.86444 10.2761 2.57618 9.66661 2.21525L9.20115 1.9396C8.59186 1.57877 8.10503 1.29047 7.68446 1.09505C7.2498 0.893087 6.85205 0.773438 6.41658 0.773438ZM4.08361 2.74961C4.71843 2.37367 5.16569 2.10942 5.53936 1.93579C5.90373 1.76649 6.16364 1.70051 6.41658 1.70051C6.66952 1.70051 6.92944 1.76649 7.29381 1.93579C7.66747 2.10942 8.11474 2.37367 8.74956 2.74961L9.17364 3.00075C9.80836 3.37663 10.2552 3.64188 10.5889 3.88716C10.9139 4.12614 11.102 4.32564 11.2309 4.55457C11.3601 4.78412 11.4351 5.05273 11.4746 5.46352C11.515 5.88397 11.5155 6.41498 11.5155 7.1663V7.66858C11.5155 8.4199 11.515 8.95091 11.4746 9.37136C11.4351 9.78215 11.3601 10.0508 11.2309 10.2803C11.102 10.5092 10.9139 10.7087 10.5889 10.9477C10.2552 11.193 9.80836 11.4583 9.17364 11.8341L8.74956 12.0853C8.11474 12.4612 7.66747 12.7255 7.29381 12.8991C6.92944 13.0684 6.66952 13.1344 6.41658 13.1344C6.16364 13.1344 5.90373 13.0684 5.53936 12.8991C5.16569 12.7255 4.71843 12.4612 4.08361 12.0853L3.65953 11.8341C3.0248 11.4583 2.57793 11.193 2.24429 10.9477C1.91922 10.7087 1.73117 10.5092 1.60231 10.2803C1.4731 10.0508 1.39807 9.78215 1.3586 9.37136C1.31819 8.95091 1.3177 8.4199 1.3177 7.66858V7.1663C1.3177 6.41498 1.31819 5.88397 1.3586 5.46352C1.39807 5.05273 1.4731 4.78412 1.60231 4.55457C1.73117 4.32564 1.91922 4.12614 2.24429 3.88716C2.57793 3.64188 3.0248 3.37663 3.65953 3.00075L4.08361 2.74961Z" fill="#4E4E4E"/>
</svg>
