<svg width="17" height="14" viewBox="0 0 17 14" fill="none" xmlns="http://www.w3.org/2000/svg">
<path fill-rule="evenodd" clip-rule="evenodd" d="M0 1.55033C0 1.18922 0.292737 0.896484 0.653846 0.896484H16.3462C16.7073 0.896484 17 1.18922 17 1.55033C17 1.91144 16.7073 2.20418 16.3462 2.20418H0.653846C0.292737 2.20418 0 1.91144 0 1.55033ZM0 5.03751C0 4.6764 0.292737 4.38366 0.653846 4.38366H16.3462C16.7073 4.38366 17 4.6764 17 5.03751C17 5.39862 16.7073 5.69136 16.3462 5.69136H0.653846C0.292737 5.69136 0 5.39862 0 5.03751ZM15.8765 7.57323C16.1612 7.79533 16.212 8.20619 15.9899 8.49093L12.5899 12.8499C12.4686 13.0055 12.2835 13.0979 12.0862 13.1015C11.8889 13.1051 11.7006 13.0194 11.5737 12.8683L9.74294 10.6888C9.51067 10.4123 9.54654 9.99989 9.82304 9.76763C10.0995 9.53536 10.512 9.57123 10.7442 9.84773L12.0555 11.4088L14.9588 7.68666C15.1809 7.40192 15.5918 7.35114 15.8765 7.57323ZM0 8.52469C0 8.16358 0.292737 7.87084 0.653846 7.87084H6.75641C7.11752 7.87084 7.41026 8.16358 7.41026 8.52469C7.41026 8.8858 7.11752 9.17854 6.75641 9.17854H0.653846C0.292737 9.17854 0 8.8858 0 8.52469ZM0 12.0119C0 11.6508 0.292737 11.358 0.653846 11.358H6.75641C7.11752 11.358 7.41026 11.6508 7.41026 12.0119C7.41026 12.373 7.11752 12.6657 6.75641 12.6657H0.653846C0.292737 12.6657 0 12.373 0 12.0119Z" fill="white"/>
</svg>
