<svg width="110" height="110" viewBox="0 0 110 110" fill="none" xmlns="http://www.w3.org/2000/svg">
<path d="M87.8367 26.4628V76.085L56.4358 27.5017C55.7636 26.4628 54.246 26.4628 53.5738 27.5017L22.1729 76.085V26.4628C22.1729 23.3665 24.6784 20.8711 27.7645 20.8711H82.2451C85.3312 20.8609 87.8367 23.3665 87.8367 26.4628Z" fill="#B8B9C4"/>
<path d="M84.058 88.8979L80.0043 86.535L66.9774 78.9165L63.3005 76.7776L55.8654 72.4285C55.3357 72.1128 54.6737 72.1128 54.1441 72.4285L46.7089 76.7776L43.032 78.9165L30.0052 86.535L25.9515 88.8979C24.4033 89.8044 22.6922 88.0118 23.6598 86.5044L24.383 85.3841L53.5839 40.2128C54.2561 39.1739 55.7737 39.1739 56.4459 40.2128L85.6468 85.3841L86.37 86.5044C87.3172 88.0118 85.6061 89.8044 84.058 88.8979Z" fill="#B8B9C4"/>
</svg>
