<svg width="28" height="28" viewBox="0 0 28 28" fill="none" xmlns="http://www.w3.org/2000/svg">
<path d="M22.359 6.73584V19.367L14.366 7.00029C14.1949 6.73584 13.8086 6.73584 13.6375 7.00029L5.64453 19.367V6.73584C5.64453 5.94769 6.28231 5.31251 7.06786 5.31251H20.9356C21.7212 5.30992 22.359 5.94769 22.359 6.73584Z" fill="#B8B9C4"/>
<path d="M21.397 22.63L20.3651 22.0285L17.0492 20.0892L16.1133 19.5448L14.2207 18.4378C14.0859 18.3574 13.9174 18.3574 13.7826 18.4378L11.89 19.5448L10.954 20.0892L7.63811 22.0285L6.60626 22.63C6.21218 22.8607 5.77663 22.4044 6.02292 22.0207L6.207 21.7355L13.64 10.2374C13.8111 9.97295 14.1974 9.97295 14.3685 10.2374L21.8014 21.7355L21.9855 22.0207C22.2266 22.4044 21.7911 22.8607 21.397 22.63Z" fill="#B8B9C4"/>
</svg>
