<svg width="110" height="51" viewBox="0 0 110 51" fill="none" xmlns="http://www.w3.org/2000/svg">
<path d="M5.808 38.72C5.66867 38.4633 5.467 38.269 5.203 38.137C4.94633 37.9977 4.642 37.928 4.29 37.928C3.68133 37.928 3.19367 38.1297 2.827 38.533C2.46033 38.929 2.277 39.4607 2.277 40.128C2.277 40.8393 2.46767 41.3967 2.849 41.8C3.23767 42.196 3.76933 42.394 4.444 42.394C4.906 42.394 5.29467 42.2767 5.61 42.042C5.93267 41.8073 6.16733 41.47 6.314 41.03H3.927V39.644H8.019V41.393C7.87967 41.8623 7.64133 42.2987 7.304 42.702C6.974 43.1053 6.55233 43.4317 6.039 43.681C5.52567 43.9303 4.94633 44.055 4.301 44.055C3.53833 44.055 2.85633 43.89 2.255 43.56C1.661 43.2227 1.19533 42.757 0.858 42.163C0.528 41.569 0.363 40.8907 0.363 40.128C0.363 39.3653 0.528 38.687 0.858 38.093C1.19533 37.4917 1.661 37.026 2.255 36.696C2.849 36.3587 3.52733 36.19 4.29 36.19C5.214 36.19 5.99133 36.4137 6.622 36.861C7.26 37.3083 7.68167 37.928 7.887 38.72H5.808ZM14.8469 40.832C14.8469 41.008 14.8359 41.1913 14.8139 41.382H10.5569C10.5862 41.7633 10.7072 42.0567 10.9199 42.262C11.1399 42.46 11.4076 42.559 11.7229 42.559C12.1922 42.559 12.5186 42.361 12.7019 41.965H14.7039C14.6012 42.3683 14.4142 42.7313 14.1429 43.054C13.8789 43.3767 13.5452 43.6297 13.1419 43.813C12.7386 43.9963 12.2876 44.088 11.7889 44.088C11.1876 44.088 10.6522 43.9597 10.1829 43.703C9.71357 43.4463 9.34691 43.0797 9.08291 42.603C8.81891 42.1263 8.68691 41.569 8.68691 40.931C8.68691 40.293 8.81524 39.7357 9.07191 39.259C9.33591 38.7823 9.70257 38.4157 10.1719 38.159C10.6412 37.9023 11.1802 37.774 11.7889 37.774C12.3829 37.774 12.9109 37.8987 13.3729 38.148C13.8349 38.3973 14.1942 38.753 14.4509 39.215C14.7149 39.677 14.8469 40.216 14.8469 40.832ZM12.9219 40.337C12.9219 40.0143 12.8119 39.7577 12.5919 39.567C12.3719 39.3763 12.0969 39.281 11.7669 39.281C11.4516 39.281 11.1839 39.3727 10.9639 39.556C10.7512 39.7393 10.6192 39.9997 10.5679 40.337H12.9219ZM18.3362 44.088C17.8009 44.088 17.3242 43.9963 16.9062 43.813C16.4882 43.6297 16.1582 43.3803 15.9162 43.065C15.6742 42.7423 15.5386 42.383 15.5092 41.987H17.3682C17.3902 42.1997 17.4892 42.372 17.6652 42.504C17.8412 42.636 18.0576 42.702 18.3142 42.702C18.5489 42.702 18.7286 42.658 18.8532 42.57C18.9852 42.4747 19.0512 42.3537 19.0512 42.207C19.0512 42.031 18.9596 41.9027 18.7762 41.822C18.5929 41.734 18.2959 41.6387 17.8852 41.536C17.4452 41.4333 17.0786 41.327 16.7852 41.217C16.4919 41.0997 16.2389 40.92 16.0262 40.678C15.8136 40.4287 15.7072 40.095 15.7072 39.677C15.7072 39.325 15.8026 39.006 15.9932 38.72C16.1912 38.4267 16.4772 38.1957 16.8512 38.027C17.2326 37.8583 17.6836 37.774 18.2042 37.774C18.9742 37.774 19.5792 37.9647 20.0192 38.346C20.4666 38.7273 20.7232 39.2333 20.7892 39.864H19.0512C19.0219 39.6513 18.9266 39.4827 18.7652 39.358C18.6112 39.2333 18.4059 39.171 18.1492 39.171C17.9292 39.171 17.7606 39.215 17.6432 39.303C17.5259 39.3837 17.4672 39.4973 17.4672 39.644C17.4672 39.82 17.5589 39.952 17.7422 40.04C17.9329 40.128 18.2262 40.216 18.6222 40.304C19.0769 40.4213 19.4472 40.5387 19.7332 40.656C20.0192 40.766 20.2686 40.9493 20.4812 41.206C20.7012 41.4553 20.8149 41.7927 20.8222 42.218C20.8222 42.5773 20.7196 42.9 20.5142 43.186C20.3162 43.4647 20.0266 43.6847 19.6452 43.846C19.2712 44.0073 18.8349 44.088 18.3362 44.088ZM25.394 42.405V44H24.437C23.755 44 23.2233 43.835 22.842 43.505C22.4607 43.1677 22.27 42.6213 22.27 41.866V39.424H21.522V37.862H22.27V36.366H24.151V37.862H25.383V39.424H24.151V41.888C24.151 42.0713 24.195 42.2033 24.283 42.284C24.371 42.3647 24.5177 42.405 24.723 42.405H25.394ZM26.0678 40.92C26.0678 40.2893 26.1851 39.7357 26.4198 39.259C26.6618 38.7823 26.9881 38.4157 27.3988 38.159C27.8094 37.9023 28.2678 37.774 28.7738 37.774C29.2064 37.774 29.5841 37.862 29.9068 38.038C30.2368 38.214 30.4898 38.445 30.6658 38.731V37.862H32.5468V44H30.6658V43.131C30.4824 43.417 30.2258 43.648 29.8958 43.824C29.5731 44 29.1954 44.088 28.7628 44.088C28.2641 44.088 27.8094 43.9597 27.3988 43.703C26.9881 43.439 26.6618 43.0687 26.4198 42.592C26.1851 42.108 26.0678 41.5507 26.0678 40.92ZM30.6658 40.931C30.6658 40.4617 30.5338 40.0913 30.2698 39.82C30.0131 39.5487 29.6978 39.413 29.3238 39.413C28.9498 39.413 28.6308 39.5487 28.3668 39.82C28.1101 40.084 27.9818 40.4507 27.9818 40.92C27.9818 41.3893 28.1101 41.7633 28.3668 42.042C28.6308 42.3133 28.9498 42.449 29.3238 42.449C29.6978 42.449 30.0131 42.3133 30.2698 42.042C30.5338 41.7707 30.6658 41.4003 30.6658 40.931ZM27.3328 37.345C27.5088 36.2597 28.0148 35.717 28.8508 35.717C29.0121 35.717 29.1514 35.7427 29.2688 35.794C29.3934 35.838 29.5438 35.9077 29.7198 36.003C29.8518 36.0763 29.9581 36.1313 30.0388 36.168C30.1194 36.1973 30.2038 36.212 30.2918 36.212C30.5631 36.212 30.7208 36.047 30.7648 35.717H31.7328C31.5568 36.8023 31.0508 37.345 30.2148 37.345C30.0534 37.345 29.9104 37.323 29.7858 37.279C29.6684 37.2277 29.5218 37.1543 29.3458 37.059C29.2138 36.9857 29.1074 36.9343 29.0268 36.905C28.9461 36.8683 28.8618 36.85 28.7738 36.85C28.5024 36.85 28.3411 37.015 28.2898 37.345H27.3328ZM36.7016 44.088C36.1003 44.088 35.5576 43.9597 35.0736 43.703C34.5969 43.4463 34.2193 43.0797 33.9406 42.603C33.6693 42.1263 33.5336 41.569 33.5336 40.931C33.5336 40.3003 33.6729 39.7467 33.9516 39.27C34.2303 38.786 34.6116 38.4157 35.0956 38.159C35.5796 37.9023 36.1223 37.774 36.7236 37.774C37.3249 37.774 37.8676 37.9023 38.3516 38.159C38.8356 38.4157 39.2169 38.786 39.4956 39.27C39.7743 39.7467 39.9136 40.3003 39.9136 40.931C39.9136 41.5617 39.7706 42.119 39.4846 42.603C39.2059 43.0797 38.8209 43.4463 38.3296 43.703C37.8456 43.9597 37.3029 44.088 36.7016 44.088ZM36.7016 42.46C37.0609 42.46 37.3653 42.328 37.6146 42.064C37.8713 41.8 37.9996 41.4223 37.9996 40.931C37.9996 40.4397 37.8749 40.062 37.6256 39.798C37.3836 39.534 37.0829 39.402 36.7236 39.402C36.3569 39.402 36.0526 39.534 35.8106 39.798C35.5686 40.0547 35.4476 40.4323 35.4476 40.931C35.4476 41.4223 35.5649 41.8 35.7996 42.064C36.0416 42.328 36.3423 42.46 36.7016 42.46ZM42.8685 40.92C42.8685 40.2893 42.9859 39.7357 43.2205 39.259C43.4625 38.7823 43.7889 38.4157 44.1995 38.159C44.6102 37.9023 45.0685 37.774 45.5745 37.774C45.9779 37.774 46.3445 37.8583 46.6745 38.027C47.0119 38.1957 47.2759 38.423 47.4665 38.709V35.86H49.3475V44H47.4665V43.12C47.2905 43.4133 47.0375 43.648 46.7075 43.824C46.3849 44 46.0072 44.088 45.5745 44.088C45.0685 44.088 44.6102 43.9597 44.1995 43.703C43.7889 43.439 43.4625 43.0687 43.2205 42.592C42.9859 42.108 42.8685 41.5507 42.8685 40.92ZM47.4665 40.931C47.4665 40.4617 47.3345 40.0913 47.0705 39.82C46.8139 39.5487 46.4985 39.413 46.1245 39.413C45.7505 39.413 45.4315 39.5487 45.1675 39.82C44.9109 40.084 44.7825 40.4507 44.7825 40.92C44.7825 41.3893 44.9109 41.7633 45.1675 42.042C45.4315 42.3133 45.7505 42.449 46.1245 42.449C46.4985 42.449 46.8139 42.3133 47.0705 42.042C47.3345 41.7707 47.4665 41.4003 47.4665 40.931ZM56.4944 40.832C56.4944 41.008 56.4834 41.1913 56.4614 41.382H52.2044C52.2337 41.7633 52.3547 42.0567 52.5674 42.262C52.7874 42.46 53.055 42.559 53.3704 42.559C53.8397 42.559 54.166 42.361 54.3494 41.965H56.3514C56.2487 42.3683 56.0617 42.7313 55.7904 43.054C55.5264 43.3767 55.1927 43.6297 54.7894 43.813C54.386 43.9963 53.935 44.088 53.4364 44.088C52.835 44.088 52.2997 43.9597 51.8304 43.703C51.361 43.4463 50.9944 43.0797 50.7304 42.603C50.4664 42.1263 50.3344 41.569 50.3344 40.931C50.3344 40.293 50.4627 39.7357 50.7194 39.259C50.9834 38.7823 51.35 38.4157 51.8194 38.159C52.2887 37.9023 52.8277 37.774 53.4364 37.774C54.0304 37.774 54.5584 37.8987 55.0204 38.148C55.4824 38.3973 55.8417 38.753 56.0984 39.215C56.3624 39.677 56.4944 40.216 56.4944 40.832ZM54.5694 40.337C54.5694 40.0143 54.4594 39.7577 54.2394 39.567C54.0194 39.3763 53.7444 39.281 53.4144 39.281C53.099 39.281 52.8314 39.3727 52.6114 39.556C52.3987 39.7393 52.2667 39.9997 52.2154 40.337H54.5694ZM63.7557 44L62.1497 41.085H61.6987V44H59.8177V36.278H62.9747C63.5834 36.278 64.1004 36.3843 64.5257 36.597C64.9584 36.8097 65.2811 37.103 65.4937 37.477C65.7064 37.8437 65.8127 38.2543 65.8127 38.709C65.8127 39.2223 65.6661 39.6807 65.3727 40.084C65.0867 40.4873 64.6614 40.7733 64.0967 40.942L65.8787 44H63.7557ZM61.6987 39.754H62.8647C63.2094 39.754 63.4661 39.6697 63.6347 39.501C63.8107 39.3323 63.8987 39.094 63.8987 38.786C63.8987 38.4927 63.8107 38.2617 63.6347 38.093C63.4661 37.9243 63.2094 37.84 62.8647 37.84H61.6987V39.754ZM72.7795 40.832C72.7795 41.008 72.7685 41.1913 72.7465 41.382H68.4895C68.5189 41.7633 68.6399 42.0567 68.8525 42.262C69.0725 42.46 69.3402 42.559 69.6555 42.559C70.1249 42.559 70.4512 42.361 70.6345 41.965H72.6365C72.5339 42.3683 72.3469 42.7313 72.0755 43.054C71.8115 43.3767 71.4779 43.6297 71.0745 43.813C70.6712 43.9963 70.2202 44.088 69.7215 44.088C69.1202 44.088 68.5849 43.9597 68.1155 43.703C67.6462 43.4463 67.2795 43.0797 67.0155 42.603C66.7515 42.1263 66.6195 41.569 66.6195 40.931C66.6195 40.293 66.7479 39.7357 67.0045 39.259C67.2685 38.7823 67.6352 38.4157 68.1045 38.159C68.5739 37.9023 69.1129 37.774 69.7215 37.774C70.3155 37.774 70.8435 37.8987 71.3055 38.148C71.7675 38.3973 72.1269 38.753 72.3835 39.215C72.6475 39.677 72.7795 40.216 72.7795 40.832ZM70.8545 40.337C70.8545 40.0143 70.7445 39.7577 70.5245 39.567C70.3045 39.3763 70.0295 39.281 69.6995 39.281C69.3842 39.281 69.1165 39.3727 68.8965 39.556C68.6839 39.7393 68.5519 39.9997 68.5005 40.337H70.8545ZM75.6528 35.86V44H73.7718V35.86H75.6528ZM82.802 40.832C82.802 41.008 82.791 41.1913 82.769 41.382H78.512C78.5413 41.7633 78.6623 42.0567 78.875 42.262C79.095 42.46 79.3627 42.559 79.678 42.559C80.1473 42.559 80.4737 42.361 80.657 41.965H82.659C82.5563 42.3683 82.3693 42.7313 82.098 43.054C81.834 43.3767 81.5003 43.6297 81.097 43.813C80.6937 43.9963 80.2427 44.088 79.744 44.088C79.1427 44.088 78.6073 43.9597 78.138 43.703C77.6687 43.4463 77.302 43.0797 77.038 42.603C76.774 42.1263 76.642 41.569 76.642 40.931C76.642 40.293 76.7703 39.7357 77.027 39.259C77.291 38.7823 77.6577 38.4157 78.127 38.159C78.5963 37.9023 79.1353 37.774 79.744 37.774C80.338 37.774 80.866 37.8987 81.328 38.148C81.79 38.3973 82.1493 38.753 82.406 39.215C82.67 39.677 82.802 40.216 82.802 40.832ZM80.877 40.337C80.877 40.0143 80.767 39.7577 80.547 39.567C80.327 39.3763 80.052 39.281 79.722 39.281C79.4067 39.281 79.139 39.3727 78.919 39.556C78.7063 39.7393 78.5743 39.9997 78.523 40.337H80.877ZM83.4203 40.92C83.4203 40.2893 83.5376 39.7357 83.7723 39.259C84.0143 38.7823 84.3406 38.4157 84.7513 38.159C85.162 37.9023 85.6203 37.774 86.1263 37.774C86.559 37.774 86.9366 37.862 87.2593 38.038C87.5893 38.214 87.8423 38.445 88.0183 38.731V37.862H89.8993V44H88.0183V43.131C87.835 43.417 87.5783 43.648 87.2483 43.824C86.9256 44 86.548 44.088 86.1153 44.088C85.6166 44.088 85.162 43.9597 84.7513 43.703C84.3406 43.439 84.0143 43.0687 83.7723 42.592C83.5376 42.108 83.4203 41.5507 83.4203 40.92ZM88.0183 40.931C88.0183 40.4617 87.8863 40.0913 87.6223 39.82C87.3656 39.5487 87.0503 39.413 86.6763 39.413C86.3023 39.413 85.9833 39.5487 85.7193 39.82C85.4626 40.084 85.3343 40.4507 85.3343 40.92C85.3343 41.3893 85.4626 41.7633 85.7193 42.042C85.9833 42.3133 86.3023 42.449 86.6763 42.449C87.0503 42.449 87.3656 42.3133 87.6223 42.042C87.8863 41.7707 88.0183 41.4003 88.0183 40.931ZM93.7571 44.088C93.2218 44.088 92.7451 43.9963 92.3271 43.813C91.9091 43.6297 91.5791 43.3803 91.3371 43.065C91.0951 42.7423 90.9595 42.383 90.9301 41.987H92.7891C92.8111 42.1997 92.9101 42.372 93.0861 42.504C93.2621 42.636 93.4785 42.702 93.7351 42.702C93.9698 42.702 94.1495 42.658 94.2741 42.57C94.4061 42.4747 94.4721 42.3537 94.4721 42.207C94.4721 42.031 94.3805 41.9027 94.1971 41.822C94.0138 41.734 93.7168 41.6387 93.3061 41.536C92.8661 41.4333 92.4995 41.327 92.2061 41.217C91.9128 41.0997 91.6598 40.92 91.4471 40.678C91.2345 40.4287 91.1281 40.095 91.1281 39.677C91.1281 39.325 91.2235 39.006 91.4141 38.72C91.6121 38.4267 91.8981 38.1957 92.2721 38.027C92.6535 37.8583 93.1045 37.774 93.6251 37.774C94.3951 37.774 95.0001 37.9647 95.4401 38.346C95.8875 38.7273 96.1441 39.2333 96.2101 39.864H94.4721C94.4428 39.6513 94.3475 39.4827 94.1861 39.358C94.0321 39.2333 93.8268 39.171 93.5701 39.171C93.3501 39.171 93.1815 39.215 93.0641 39.303C92.9468 39.3837 92.8881 39.4973 92.8881 39.644C92.8881 39.82 92.9798 39.952 93.1631 40.04C93.3538 40.128 93.6471 40.216 94.0431 40.304C94.4978 40.4213 94.8681 40.5387 95.1541 40.656C95.4401 40.766 95.6895 40.9493 95.9021 41.206C96.1221 41.4553 96.2358 41.7927 96.2431 42.218C96.2431 42.5773 96.1405 42.9 95.9351 43.186C95.7371 43.4647 95.4475 43.6847 95.0661 43.846C94.6921 44.0073 94.2558 44.088 93.7571 44.088ZM103.18 40.832C103.18 41.008 103.169 41.1913 103.147 41.382H98.8899C98.9192 41.7633 99.0402 42.0567 99.2529 42.262C99.4729 42.46 99.7406 42.559 100.056 42.559C100.525 42.559 100.852 42.361 101.035 41.965H103.037C102.934 42.3683 102.747 42.7313 102.476 43.054C102.212 43.3767 101.878 43.6297 101.475 43.813C101.072 43.9963 100.621 44.088 100.122 44.088C99.5206 44.088 98.9852 43.9597 98.5159 43.703C98.0466 43.4463 97.6799 43.0797 97.4159 42.603C97.1519 42.1263 97.0199 41.569 97.0199 40.931C97.0199 40.293 97.1482 39.7357 97.4049 39.259C97.6689 38.7823 98.0356 38.4157 98.5049 38.159C98.9742 37.9023 99.5132 37.774 100.122 37.774C100.716 37.774 101.244 37.8987 101.706 38.148C102.168 38.3973 102.527 38.753 102.784 39.215C103.048 39.677 103.18 40.216 103.18 40.832ZM101.255 40.337C101.255 40.0143 101.145 39.7577 100.925 39.567C100.705 39.3763 100.43 39.281 100.1 39.281C99.7846 39.281 99.5169 39.3727 99.2969 39.556C99.0842 39.7393 98.9522 39.9997 98.9009 40.337H101.255ZM106.669 44.088C106.134 44.088 105.657 43.9963 105.239 43.813C104.821 43.6297 104.491 43.3803 104.249 43.065C104.007 42.7423 103.872 42.383 103.842 41.987H105.701C105.723 42.1997 105.822 42.372 105.998 42.504C106.174 42.636 106.391 42.702 106.647 42.702C106.882 42.702 107.062 42.658 107.186 42.57C107.318 42.4747 107.384 42.3537 107.384 42.207C107.384 42.031 107.293 41.9027 107.109 41.822C106.926 41.734 106.629 41.6387 106.218 41.536C105.778 41.4333 105.412 41.327 105.118 41.217C104.825 41.0997 104.572 40.92 104.359 40.678C104.147 40.4287 104.04 40.095 104.04 39.677C104.04 39.325 104.136 39.006 104.326 38.72C104.524 38.4267 104.81 38.1957 105.184 38.027C105.566 37.8583 106.017 37.774 106.537 37.774C107.307 37.774 107.912 37.9647 108.352 38.346C108.8 38.7273 109.056 39.2333 109.122 39.864H107.384C107.355 39.6513 107.26 39.4827 107.098 39.358C106.944 39.2333 106.739 39.171 106.482 39.171C106.262 39.171 106.094 39.215 105.976 39.303C105.859 39.3837 105.8 39.4973 105.8 39.644C105.8 39.82 105.892 39.952 106.075 40.04C106.266 40.128 106.559 40.216 106.955 40.304C107.41 40.4213 107.78 40.5387 108.066 40.656C108.352 40.766 108.602 40.9493 108.814 41.206C109.034 41.4553 109.148 41.7927 109.155 42.218C109.155 42.5773 109.053 42.9 108.847 43.186C108.649 43.4647 108.36 43.6847 107.978 43.846C107.604 44.0073 107.168 44.088 106.669 44.088Z" fill="#B8B9C4"/>
<path fill-rule="evenodd" clip-rule="evenodd" d="M53.8544 1.55443C55.128 1.5328 56.1544 1.85199 56.1544 2.95046V11.1568C56.1544 12.256 55.1472 13.1328 53.8544 13.2168C53.2608 13.2544 51.9312 12.6504 52.4392 12.1656C53.5312 10.9176 54.1096 8.82161 52.2032 7.98482C51.4952 7.67362 51.3936 7.48318 51.3816 6.47839V3.59923C51.3816 2.21685 52.6248 1.57606 53.8544 1.55443ZM47.8376 3.72727C50.6424 2.26641 50.4248 3.83681 50.4248 4.71443V6.9104C50.4248 7.30563 50.1968 7.71925 49.4656 7.772C49.192 7.7912 48.4576 7.78564 48.0544 7.78478C45.8888 7.77038 45.7872 7.68565 45.556 7.39279C44.728 6.364 47.016 4.15599 47.8376 3.72727ZM48.6504 20.8592C48.3248 20.3144 47.9704 19.8232 47.716 19.3376C47.5016 18.9952 47.2784 18.7968 46.7048 19.0783C46.4688 19.2096 46.2888 19.3168 46.0688 19.4568C45.5456 19.8704 45.5184 20.0904 45.8376 20.644C46.164 21.0904 46.52 21.5103 46.908 21.9031C47.1856 22.16 47.6064 22.2048 47.928 22.0024C48.0984 21.8856 48.2904 21.7824 48.4456 21.6664C48.6504 21.5015 48.9656 21.3911 48.6504 20.8592ZM51.9 24.4376C51.3856 24.0191 50.8832 23.5384 50.4016 23.0256C50.0048 22.6096 49.6296 22.4408 49.2248 22.6568C49.072 22.7367 48.9184 22.82 48.7688 22.9064C48.544 23.1176 48.6888 23.3952 48.8736 23.504C49.7184 24.0471 50.6424 24.4824 51.6184 24.7863C52.3096 24.9655 52.2704 24.7576 51.9 24.4376ZM51.336 22.3575C52.036 23.2504 52.7816 24.0176 53.4872 24.5815C53.9688 24.9719 54.3232 24.896 54.3064 24.3111L54.2312 22.0968C54.2312 21.4688 53.8952 21.2736 53.252 21.3703C52.6704 21.4512 52.1016 21.5727 51.5504 21.7303C51.3704 21.7848 51.0608 22.0135 51.336 22.3575ZM49.1872 18.8143C49.4048 19.3016 49.648 19.78 49.9144 20.244C50.1704 20.6871 50.7656 20.54 51.0032 20.4688C51.8112 20.1968 52.6232 20.008 53.4952 19.9071C53.944 19.8512 54.164 19.536 54.1424 19.1864L54.1 17.9272C54.0688 17.3632 53.8144 17.1776 53.0768 17.2096C51.848 17.328 50.68 17.5584 49.5952 17.8824C49.1112 18.0256 49.016 18.3056 49.1872 18.8143ZM58.672 22.3575C57.9736 23.2504 57.2312 24.0176 56.5232 24.5815C56.0392 24.9719 55.6872 24.896 55.7064 24.3111L55.7768 22.0968C55.7768 21.4688 56.1168 21.2736 56.7576 21.3703C57.3408 21.4512 57.9048 21.5727 58.4624 21.7303C58.6392 21.7848 58.948 22.0135 58.672 22.3575ZM60.8216 18.8143C60.6048 19.3016 60.3592 19.78 60.0936 20.244C59.8408 20.6871 59.244 20.54 59.0096 20.4688C58.1984 20.1968 57.3872 20.008 56.5144 19.9071C56.0672 19.8512 55.8456 19.536 55.8688 19.1864L55.9096 17.9272C55.9392 17.3632 56.1952 17.1776 56.9328 17.2096C58.1608 17.328 59.3296 17.5584 60.4128 17.8824C60.8984 18.0256 60.9936 18.3056 60.8216 18.8143ZM61.3608 20.8592C61.6832 20.3144 62.0376 19.8232 62.2952 19.3376C62.5096 18.9952 62.736 18.7968 63.3032 19.0783C63.5408 19.2096 63.72 19.3168 63.9408 19.4568C64.464 19.8704 64.492 20.0904 64.172 20.644C63.848 21.0904 63.4872 21.5103 63.1016 21.9031C62.8216 22.16 62.4016 22.2048 62.0832 22.0024C61.9128 21.8856 61.72 21.7824 61.5624 21.6664C61.3608 21.5015 61.0456 21.3911 61.3608 20.8592ZM58.1128 24.4376C58.6264 24.0191 59.128 23.5384 59.6112 23.0256C60.0064 22.6096 60.3832 22.4408 60.7856 22.6568C60.9376 22.7367 61.0904 22.82 61.2392 22.9064C61.4704 23.1176 61.3216 23.3952 61.1344 23.504C60.2936 24.0471 59.3688 24.4824 58.3888 24.7863C57.6984 24.9655 57.7376 24.7576 58.1128 24.4376ZM49.1952 16.5544C50.4936 16.1352 51.9216 15.8512 53.4344 15.7351C53.5784 15.724 53.9592 15.664 54.0688 15.2304C54.1968 14.8344 54.572 14.5464 55 14.5464C55.464 14.5464 55.8672 14.8848 55.9576 15.332C56.084 15.6608 56.4408 15.7264 56.5408 15.7328C58.1064 15.8512 59.5832 16.1496 60.9096 16.5896C61.2672 16.7256 61.6904 16.572 61.772 16.3328C62.0064 15.948 62.372 15.8608 62.7112 16.0104C63.1168 16.1872 63.22 16.5672 63.1968 16.9504C63.184 17.1608 63.2096 17.4864 63.6032 17.7448C64.0048 17.976 64.3328 18.1688 64.7688 18.376C65.8 18.8871 66.0144 16.4024 66.0248 15.8784C66.056 14.3208 65.18 13.548 63.7264 12.9536C62.2264 12.3424 62.456 10.544 62.4752 10.1072V6.48319C62.4752 5.96084 62.4544 5.45445 62.564 5.1576C62.7984 4.52878 63.3784 4.57441 64.2264 5.52403C66.228 7.7672 67.4888 10.7144 67.4888 13.9576C67.4888 20.8551 61.8968 26.4471 55 26.4471C48.1032 26.4471 42.5112 20.8551 42.5112 13.9576C42.5112 13.804 42.5144 13.6528 42.52 13.4992C42.7232 10.9144 43.208 9.73363 44.8504 9.03842C45.4544 8.7824 46.3856 8.71201 47.3872 8.75845L50.7312 8.78801C53.8184 8.78801 52.048 12.2152 49.9064 12.8232C48.2544 13.2904 43.8424 12.1912 43.98 16.0864C43.9968 16.6288 44.1064 17.1528 44.244 17.5632C44.6888 18.8208 45.048 18.4712 45.9 18.0512C46.0376 17.9632 46.1952 17.9103 46.3216 17.8095C46.748 17.4576 46.8216 17.3928 46.8016 16.9168C46.7856 16.5448 46.8952 16.18 47.2872 16.0104C47.6624 15.8472 48.0576 15.9648 48.2904 16.4416C48.4456 16.68 48.8816 16.6664 49.1952 16.5544ZM59.052 2.18244C60.2248 2.3992 61.5128 2.92322 61.5128 4.33602V10.8608C61.5128 13.4344 57.116 13.4712 57.116 10.9216V3.62879C57.116 2.57605 58.0048 1.98882 59.052 2.18244ZM55 0C62.7328 0 69 6.26961 69 14C69 21.7311 62.7328 28 55 28C47.2688 28 41 21.7311 41 14C41 6.26961 47.2688 0 55 0Z" fill="#B8B9C4"/>
</svg>
