<svg width="28" height="28" viewBox="0 0 28 28" fill="none" xmlns="http://www.w3.org/2000/svg">
<path fill-rule="evenodd" clip-rule="evenodd" d="M12.8544 1.55443C14.128 1.5328 15.1544 1.85199 15.1544 2.95046V11.1568C15.1544 12.256 14.1472 13.1328 12.8544 13.2168C12.2608 13.2544 10.9312 12.6504 11.4392 12.1656C12.5312 10.9176 13.1096 8.82161 11.2032 7.98482C10.4952 7.67362 10.3936 7.48318 10.3816 6.47839V3.59923C10.3816 2.21685 11.6248 1.57606 12.8544 1.55443ZM6.8376 3.72727C9.64239 2.26641 9.42481 3.83681 9.42481 4.71443V6.9104C9.42481 7.30563 9.1968 7.71925 8.4656 7.772C8.19201 7.7912 7.4576 7.78564 7.05439 7.78478C4.8888 7.77038 4.7872 7.68565 4.55601 7.39279C3.728 6.364 6.01601 4.15599 6.8376 3.72727ZM7.6504 20.8592C7.3248 20.3144 6.9704 19.8232 6.71601 19.3376C6.5016 18.9952 6.27841 18.7968 5.70479 19.0783C5.46881 19.2096 5.2888 19.3168 5.0688 19.4568C4.5456 19.8704 4.51839 20.0904 4.8376 20.644C5.164 21.0904 5.51999 21.5103 5.90799 21.9031C6.18559 22.16 6.6064 22.2048 6.92801 22.0024C7.0984 21.8856 7.29041 21.7824 7.4456 21.6664C7.6504 21.5015 7.96559 21.3911 7.6504 20.8592ZM10.9 24.4376C10.3856 24.0191 9.8832 23.5384 9.4016 23.0256C9.0048 22.6096 8.6296 22.4408 8.2248 22.6568C8.07199 22.7367 7.9184 22.82 7.7688 22.9064C7.54399 23.1176 7.68879 23.3952 7.8736 23.504C8.71839 24.0471 9.64239 24.4824 10.6184 24.7863C11.3096 24.9655 11.2704 24.7576 10.9 24.4376ZM10.336 22.3575C11.036 23.2504 11.7816 24.0176 12.4872 24.5815C12.9688 24.9719 13.3232 24.896 13.3064 24.3111L13.2312 22.0968C13.2312 21.4688 12.8952 21.2736 12.252 21.3703C11.6704 21.4512 11.1016 21.5727 10.5504 21.7303C10.3704 21.7848 10.0608 22.0135 10.336 22.3575ZM8.1872 18.8143C8.40479 19.3016 8.648 19.78 8.9144 20.244C9.1704 20.6871 9.76559 20.54 10.0032 20.4688C10.8112 20.1968 11.6232 20.008 12.4952 19.9071C12.944 19.8512 13.164 19.536 13.1424 19.1864L13.1 17.9272C13.0688 17.3632 12.8144 17.1776 12.0768 17.2096C10.848 17.328 9.68 17.5584 8.59521 17.8824C8.1112 18.0256 8.01601 18.3056 8.1872 18.8143ZM17.672 22.3575C16.9736 23.2504 16.2312 24.0176 15.5232 24.5815C15.0392 24.9719 14.6872 24.896 14.7064 24.3111L14.7768 22.0968C14.7768 21.4688 15.1168 21.2736 15.7576 21.3703C16.3408 21.4512 16.9048 21.5727 17.4624 21.7303C17.6392 21.7848 17.948 22.0135 17.672 22.3575ZM19.8216 18.8143C19.6048 19.3016 19.3592 19.78 19.0936 20.244C18.8408 20.6871 18.244 20.54 18.0096 20.4688C17.1984 20.1968 16.3872 20.008 15.5144 19.9071C15.0672 19.8512 14.8456 19.536 14.8688 19.1864L14.9096 17.9272C14.9392 17.3632 15.1952 17.1776 15.9328 17.2096C17.1608 17.328 18.3296 17.5584 19.4128 17.8824C19.8984 18.0256 19.9936 18.3056 19.8216 18.8143ZM20.3608 20.8592C20.6832 20.3144 21.0376 19.8232 21.2952 19.3376C21.5096 18.9952 21.736 18.7968 22.3032 19.0783C22.5408 19.2096 22.72 19.3168 22.9408 19.4568C23.464 19.8704 23.492 20.0904 23.172 20.644C22.848 21.0904 22.4872 21.5103 22.1016 21.9031C21.8216 22.16 21.4016 22.2048 21.0832 22.0024C20.9128 21.8856 20.72 21.7824 20.5624 21.6664C20.3608 21.5015 20.0456 21.3911 20.3608 20.8592ZM17.1128 24.4376C17.6264 24.0191 18.128 23.5384 18.6112 23.0256C19.0064 22.6096 19.3832 22.4408 19.7856 22.6568C19.9376 22.7367 20.0904 22.82 20.2392 22.9064C20.4704 23.1176 20.3216 23.3952 20.1344 23.504C19.2936 24.0471 18.3688 24.4824 17.3888 24.7863C16.6984 24.9655 16.7376 24.7576 17.1128 24.4376ZM8.19521 16.5544C9.4936 16.1352 10.9216 15.8512 12.4344 15.7351C12.5784 15.724 12.9592 15.664 13.0688 15.2304C13.1968 14.8344 13.572 14.5464 14 14.5464C14.464 14.5464 14.8672 14.8848 14.9576 15.332C15.084 15.6608 15.4408 15.7264 15.5408 15.7328C17.1064 15.8512 18.5832 16.1496 19.9096 16.5896C20.2672 16.7256 20.6904 16.572 20.772 16.3328C21.0064 15.948 21.372 15.8608 21.7112 16.0104C22.1168 16.1872 22.22 16.5672 22.1968 16.9504C22.184 17.1608 22.2096 17.4864 22.6032 17.7448C23.0048 17.976 23.3328 18.1688 23.7688 18.376C24.8 18.8871 25.0144 16.4024 25.0248 15.8784C25.056 14.3208 24.18 13.548 22.7264 12.9536C21.2264 12.3424 21.456 10.544 21.4752 10.1072V6.48319C21.4752 5.96084 21.4544 5.45445 21.564 5.1576C21.7984 4.52878 22.3784 4.57441 23.2264 5.52403C25.228 7.7672 26.4888 10.7144 26.4888 13.9576C26.4888 20.8551 20.8968 26.4471 14 26.4471C7.1032 26.4471 1.51121 20.8551 1.51121 13.9576C1.51121 13.804 1.5144 13.6528 1.52 13.4992C1.72321 10.9144 2.208 9.73363 3.8504 9.03842C4.4544 8.7824 5.3856 8.71201 6.3872 8.75845L9.7312 8.78801C12.8184 8.78801 11.048 12.2152 8.90639 12.8232C7.25439 13.2904 2.8424 12.1912 2.98001 16.0864C2.9968 16.6288 3.10639 17.1528 3.24399 17.5632C3.68879 18.8208 4.048 18.4712 4.9 18.0512C5.0376 17.9632 5.1952 17.9103 5.32159 17.8095C5.748 17.4576 5.82159 17.3928 5.80159 16.9168C5.7856 16.5448 5.89521 16.18 6.28719 16.0104C6.6624 15.8472 7.0576 15.9648 7.29041 16.4416C7.4456 16.68 7.8816 16.6664 8.19521 16.5544ZM18.052 2.18244C19.2248 2.3992 20.5128 2.92322 20.5128 4.33602V10.8608C20.5128 13.4344 16.116 13.4712 16.116 10.9216V3.62879C16.116 2.57605 17.0048 1.98882 18.052 2.18244ZM14 0C21.7328 0 28 6.26961 28 14C28 21.7311 21.7328 28 14 28C6.2688 28 0 21.7311 0 14C0 6.26961 6.2688 0 14 0Z" fill="#B8B9C4"/>
</svg>
